<svg width="359" height="182" viewBox="0 0 359 182" fill="none" xmlns="http://www.w3.org/2000/svg">
<path d="M346.068 120.225C344.722 127.863 339.13 134.645 329.595 140.284C320.068 145.919 306.835 150.266 290.757 153.08C258.617 158.706 215.553 158.138 169.217 149.967C122.881 141.797 82.2198 127.603 53.9427 111.323C39.7964 103.179 28.8476 94.5694 21.8226 86.0157C14.7917 77.455 11.8566 69.1703 13.2034 61.5323C14.5502 53.8943 20.1418 47.1131 29.6766 41.4734C39.2035 35.8383 52.4368 31.4922 68.5154 28.6776C100.655 23.0514 143.719 23.6202 190.055 31.7904C236.39 39.9606 277.052 54.155 305.329 70.4343C319.475 78.5784 330.424 87.1884 337.449 95.742C344.48 104.303 347.415 112.587 346.068 120.225Z" stroke="#AEFFEC" stroke-width="4"/>
<path d="M346.07 61.5314C347.416 69.1694 344.481 77.4541 337.45 86.0148C330.425 94.5684 319.477 103.178 305.33 111.322C277.053 127.602 236.392 141.796 190.056 149.966C143.72 158.137 100.656 158.705 68.5165 153.079C52.4379 150.265 39.2046 145.918 29.6777 140.283C20.1429 134.644 14.5513 127.862 13.2046 120.224C11.8578 112.586 14.7928 104.302 21.8237 95.7411C28.8488 87.1874 39.7976 78.5774 53.9438 70.4333C82.221 54.154 122.883 39.9597 169.218 31.7894C215.554 23.6192 258.618 23.0505 290.758 28.6767C306.836 31.4913 320.07 35.8373 329.596 41.4724C339.131 47.1121 344.723 53.8934 346.07 61.5314Z" stroke="#00D1FF" stroke-width="4"/>
</svg>
