<svg xmlns="http://www.w3.org/2000/svg" viewBox="0 0 168.16 44">
  <path fill="#fff" d="M49 35.85a11 11 0 0 1-4.44-4.43A13.5 13.5 0 0 1 43 24.74 13.57 13.57 0 0 1 44.56 18a11.1 11.1 0 0 1 4.38-4.4 12.92 12.92 0 0 1 6.35-1.54 15.43 15.43 0 0 1 4.18.52 17.16 17.16 0 0 1 3.83 1.66 1.38 1.38 0 0 1 .81 1.37 1.35 1.35 0 0 1-.4.95 1.39 1.39 0 0 1-1 .42 1.28 1.28 0 0 1-.63-.14 15.24 15.24 0 0 0-3.1-1.25 12.57 12.57 0 0 0-3.34-.41 9.72 9.72 0 0 0-5.09 1.24 8.23 8.23 0 0 0-3.19 3.35 10.67 10.67 0 0 0-1.1 4.94 10.32 10.32 0 0 0 1.09 4.89 7.76 7.76 0 0 0 3.23 3.43 10.11 10.11 0 0 0 5.06 1.21 13 13 0 0 0 3.34-.4A15.84 15.84 0 0 0 62 32.62a1.18 1.18 0 0 1 .63-.14 1.41 1.41 0 0 1 1 .4 1.31 1.31 0 0 1 .4 1 1.43 1.43 0 0 1-.81 1.37 17.1 17.1 0 0 1-3.83 1.65 15.41 15.41 0 0 1-4.18.53A12.76 12.76 0 0 1 49 35.85Zm19.92-20.93a1.79 1.79 0 0 1-.54-1.29v-.14a1.86 1.86 0 0 1 1.82-1.83h.21a1.79 1.79 0 0 1 1.29.55 1.75 1.75 0 0 1 .54 1.28v.14a1.84 1.84 0 0 1-1.83 1.83h-.21a1.75 1.75 0 0 1-1.28-.54Zm.21 21.83a1.59 1.59 0 0 1-.47-1.14V20.52a1.65 1.65 0 0 1 .47-1.16 1.64 1.64 0 0 1 2.8 1.16v15.09a1.54 1.54 0 0 1-.5 1.14 1.62 1.62 0 0 1-1.16.47 1.59 1.59 0 0 1-1.14-.47Zm13.93.1a2.12 2.12 0 0 1-.79-1l-6.11-14.59a2.11 2.11 0 0 1-.18-.74 1.65 1.65 0 0 1 .47-1.16 1.57 1.57 0 0 1 1.15-.49 1.72 1.72 0 0 1 .88.26 1.45 1.45 0 0 1 .59.69l5.07 12.87c.07.16.16.24.28.24s.21-.08.28-.24l5.06-12.87a1.53 1.53 0 0 1 .6-.69 1.67 1.67 0 0 1 .88-.26 1.57 1.57 0 0 1 1.14.49 1.61 1.61 0 0 1 .47 1.16 2.06 2.06 0 0 1-.17.74l-6.12 14.63a2.06 2.06 0 0 1-.79 1 2 2 0 0 1-1.18.37h-.35a2.06 2.06 0 0 1-1.18-.41Zm14.11-21.93a1.79 1.79 0 0 1-.54-1.29v-.14a1.86 1.86 0 0 1 1.82-1.83h.22a1.78 1.78 0 0 1 1.28.55 1.75 1.75 0 0 1 .54 1.28v.14a1.79 1.79 0 0 1-.54 1.29 1.77 1.77 0 0 1-1.28.54h-.22a1.75 1.75 0 0 1-1.28-.54Zm.21 21.83a1.59 1.59 0 0 1-.47-1.14V20.52a1.65 1.65 0 0 1 .47-1.16 1.64 1.64 0 0 1 2.8 1.16v15.09a1.54 1.54 0 0 1-.5 1.14 1.62 1.62 0 0 1-1.16.47 1.59 1.59 0 0 1-1.14-.47Zm13.92-.9a11 11 0 0 1-4.45-4.43 13.5 13.5 0 0 1-1.6-6.68 13.47 13.47 0 0 1 1.62-6.74 11 11 0 0 1 4.37-4.4 12.92 12.92 0 0 1 6.35-1.54 15.38 15.38 0 0 1 4.18.52 17.23 17.23 0 0 1 3.84 1.66 1.39 1.39 0 0 1 .8 1.37 1.35 1.35 0 0 1-.4.95 1.39 1.39 0 0 1-1 .42 1.28 1.28 0 0 1-.63-.14 15.41 15.41 0 0 0-3.09-1.25 12.67 12.67 0 0 0-3.34-.41 9.73 9.73 0 0 0-5.1 1.24 8.27 8.27 0 0 0-3.18 3.35 10.55 10.55 0 0 0-1.11 4.94 10.32 10.32 0 0 0 1.09 4.89 7.82 7.82 0 0 0 3.23 3.43 10.12 10.12 0 0 0 5.07 1.21 13.13 13.13 0 0 0 3.34-.4 16 16 0 0 0 3.09-1.25 1.18 1.18 0 0 1 .63-.14 1.41 1.41 0 0 1 1 .4 1.31 1.31 0 0 1 .4 1 1.44 1.44 0 0 1-.8 1.37 17.17 17.17 0 0 1-3.84 1.65 15.36 15.36 0 0 1-4.18.53 12.72 12.72 0 0 1-6.29-1.55Zm22.05.63a6.14 6.14 0 0 1-2.18-2.48 7.87 7.87 0 0 1-.77-3.52v-10a1.5 1.5 0 0 1 .49-1.14 1.6 1.6 0 0 1 1.16-.48 1.54 1.54 0 0 1 1.14.48 1.53 1.53 0 0 1 .48 1.14v9.63c0 2.84 1.27 4.25 3.83 4.25a5.65 5.65 0 0 0 3-.84 11.13 11.13 0 0 0 2.73-2.52V20.49a1.5 1.5 0 0 1 .49-1.14 1.62 1.62 0 0 1 1.16-.48 1.64 1.64 0 0 1 1.62 1.62v15.08a1.6 1.6 0 0 1-.48 1.16 1.5 1.5 0 0 1-1.14.49 1.59 1.59 0 0 1-1.16-.49 1.57 1.57 0 0 1-.49-1.16v-1.34a11.15 11.15 0 0 1-3 2.36 7.45 7.45 0 0 1-3.51.81 6.27 6.27 0 0 1-3.37-.92Zm20.38-1.54a9.46 9.46 0 0 1-2.41-6.89 12 12 0 0 1 .92-4.61 7.59 7.59 0 0 1 2.88-3.44 8.32 8.32 0 0 1 4.64-1.26 8.42 8.42 0 0 1 4.54 1.19 8.14 8.14 0 0 1 2.84 3.22 9.81 9.81 0 0 1 1 4.48 1.58 1.58 0 0 1-.45 1.14 1.6 1.6 0 0 1-1.2.48h-11.86a5.71 5.71 0 0 0 1.88 3.75 6.37 6.37 0 0 0 4.24 1.32 11.26 11.26 0 0 0 2.51-.26 10.84 10.84 0 0 0 2.23-.83 1.35 1.35 0 0 1 .64-.14 1.45 1.45 0 0 1 1 .4 1.33 1.33 0 0 1 .44 1 1.53 1.53 0 0 1-.95 1.33 13.55 13.55 0 0 1-2.81 1.18 12.68 12.68 0 0 1-3.34.37 9 9 0 0 1-6.74-2.43Zm11.16-8.86a4.64 4.64 0 0 0-.84-2.36 4.87 4.87 0 0 0-1.91-1.72 5.31 5.31 0 0 0-2.38-.57 6 6 0 0 0-2.35.53 4.59 4.59 0 0 0-1.95 1.78 5.93 5.93 0 0 0-.83 2.76h9.84a.37.37 0 0 0 .42-.42Zm-145.5 4.41c11.61-4.75 8.42-16.16 8.42-16.16s-11.26 3.6-8.42 16.16Zm-2.89 4.8S12.43 24.2 0 27.56C5.24 39 16.5 35.29 16.5 35.29Zm-8.31 5.22a12.13 12.13 0 0 0 14.88 1.6 11.82 11.82 0 0 0-14.88-1.6Zm17.24-9.33a2.76 2.76 0 1 0 3.19 2.26 2.76 2.76 0 0 0-3.19-2.26Zm-16.63-6a3.15 3.15 0 1 0-3.64-2.58 3.16 3.16 0 0 0 3.64 2.58Z" class="a"/>
  <path fill="#fff" d="M30 41.7c-6.71-2.37-10.16-7.94-11.88-12.2a27.27 27.27 0 0 1-1.85-7.23C25.94 11 16.79 0 16.79 0s-10.06 8.94-3 21a28.6 28.6 0 0 0 2.11 9.35c1.9 4.71 5.75 10.88 13.3 13.54a1.07 1.07 0 0 0 .39.07A1.18 1.18 0 0 0 30 41.7Z" class="a"/>
</svg>