<svg width="32" height="15" viewBox="0 0 32 15" fill="none" xmlns="http://www.w3.org/2000/svg">
<g clip-path="url(#clip0_191_2906)">
<path d="M24.6988 0.200195V2.78094L25.8001 3.06237C26.1733 3.14821 26.1747 3.41417 26.0009 4.05443L24.4509 10.0673H24.3085L22.7414 5.38842L20.9834 10.9566L22.0106 14.3774H27.1193L30.6509 3.20591C30.6652 3.15755 30.6914 3.11346 30.7272 3.0776C30.7631 3.04174 30.8073 3.01523 30.8561 3.00046L31.9958 2.78094V0.200195H24.6988Z" fill="black"/>
<path d="M8.46657 0.200195V2.78094L9.50227 3.06237C9.92966 3.17635 9.92966 3.39447 9.70314 4.05443L7.69299 10.0673H7.55053L5.99911 4.05583C5.82531 3.41557 5.82673 3.14962 6.19998 3.06378L7.30122 2.78235V0.201602H0V2.78235L1.17674 3.0089C1.29214 3.03705 1.31921 3.09333 1.34912 3.20731L4.87935 14.3774H9.98949L11.7689 8.45183L13.5496 14.3774H18.6584L22.1971 3.20591C22.2114 3.15755 22.2376 3.11346 22.2734 3.0776C22.3093 3.04174 22.3535 3.01523 22.4023 3.00046L23.542 2.78094V0.200195H16.2365V2.78094L17.3377 3.06237C17.711 3.14821 17.7138 3.41417 17.54 4.05443L15.9886 10.0673H15.8461L13.836 4.05583C13.6137 3.39587 13.6066 3.17776 14.0369 3.06378L15.074 2.78235V0.201602L8.46657 0.200195Z" fill="black"/>
</g>
<defs>
<clipPath id="clip0_191_2906">
<rect width="32" height="14.1772" fill="white" transform="translate(0 0.200195)"/>
</clipPath>
</defs>
</svg>
