<svg width="1153" height="273" viewBox="0 0 1153 273" fill="none" xmlns="http://www.w3.org/2000/svg">
<path d="M102.079 242.512V236.433L105.726 235.947C107.185 235.785 108.239 235.298 108.887 234.488C109.536 233.677 109.86 232.259 109.86 230.233V172.119C109.86 170.093 109.617 168.715 109.13 167.985C108.644 167.175 107.631 166.648 106.091 166.405L102.565 165.918V159.84H155.208V176.009H148.4L147.549 172.24C147.224 170.782 146.698 169.768 145.968 169.201C145.239 168.634 143.861 168.35 141.834 168.35H123.963C122.261 168.35 121.207 168.715 120.802 169.444C120.396 170.174 120.194 171.754 120.194 174.186V199.474L147.427 199.717V207.133L120.194 207.376V230.233C120.194 232.259 120.518 233.637 121.166 234.366C121.896 235.096 123.193 235.582 125.057 235.825L129.677 236.433V242.512H102.079ZM200.083 243.849C190.924 243.849 183.265 241.377 177.105 236.433C171.026 231.408 167.987 223.343 167.987 212.239V190.234C167.987 179.373 170.986 171.389 176.984 166.283C183.062 161.096 190.762 158.502 200.083 158.502C209.566 158.502 217.347 161.096 223.426 166.283C229.505 171.389 232.544 179.373 232.544 190.234V212.239C232.544 223.343 229.424 231.408 223.183 236.433C217.023 241.377 209.323 243.849 200.083 243.849ZM200.083 234.731C206.972 234.731 212.362 232.948 216.253 229.382C220.224 225.734 222.21 220.02 222.21 212.239V189.626C222.21 182.331 220.184 176.86 216.131 173.213C212.16 169.485 206.81 167.621 200.083 167.621C193.437 167.621 188.128 169.485 184.157 173.213C180.266 176.941 178.321 182.412 178.321 189.626V212.239C178.321 220.02 180.226 225.734 184.035 229.382C187.925 232.948 193.275 234.731 200.083 234.731ZM245.264 242.512V236.433L248.911 235.947C250.37 235.785 251.424 235.298 252.072 234.488C252.721 233.677 253.045 232.259 253.045 230.233V172.119C253.045 170.66 252.842 169.647 252.437 169.079C252.113 168.431 251.465 167.945 250.492 167.621L245.994 166.283V159.84H280.521C288.789 159.84 295.192 162.109 299.731 166.648C304.269 171.187 306.539 177.225 306.539 184.763C306.539 197.002 300.622 204.985 288.789 208.714L300.703 231.813C301.352 233.029 302.041 233.92 302.77 234.488C303.581 234.974 304.715 235.298 306.174 235.46L310.551 236.068V242.512H293.773L279.306 210.294H263.379V230.233C263.379 232.259 263.744 233.677 264.473 234.488C265.203 235.217 266.459 235.663 268.242 235.825L272.862 236.433V242.512H245.264ZM275.537 201.784C282.102 201.784 287.046 200.365 290.369 197.528C293.773 194.611 295.475 190.355 295.475 184.763C295.475 179.657 293.935 175.645 290.855 172.727C287.776 169.809 283.52 168.35 278.09 168.35H266.905C264.554 168.35 263.379 169.485 263.379 171.754V201.784H275.537ZM352.964 242.512V236.433L355.882 235.825C357.422 235.501 358.516 234.974 359.165 234.245C359.813 233.515 360.137 232.178 360.137 230.233V170.66C360.137 169.12 359.854 168.066 359.286 167.499C358.8 166.932 357.868 166.567 356.49 166.405L352.964 165.918V159.84H388.343C398.474 159.84 406.458 163.325 412.294 170.295C418.129 177.185 421.047 187.721 421.047 201.905C421.047 208.957 419.872 215.562 417.522 221.722C415.252 227.801 411.483 232.786 406.215 236.676C401.028 240.567 394.3 242.512 386.033 242.512H352.964ZM386.276 234.002C393.247 234.002 399.001 231.489 403.54 226.464C408.079 221.439 410.348 213.252 410.348 201.905C410.348 190.396 408.403 181.926 404.513 176.496C400.703 171.065 394.949 168.35 387.249 168.35H374.848C373.065 168.35 371.89 168.634 371.322 169.201C370.755 169.768 370.471 171.025 370.471 172.97V229.26C370.471 230.881 370.593 232.016 370.836 232.664C371.079 233.232 371.444 233.596 371.93 233.758C372.498 233.92 373.47 234.002 374.848 234.002H386.276ZM433.818 242.512V236.433L436.614 235.825C438.154 235.501 439.248 234.974 439.896 234.245C440.626 233.515 440.991 232.178 440.991 230.233V172.119C440.991 170.174 440.585 168.836 439.775 168.107C438.964 167.377 437.668 166.81 435.884 166.405L433.818 165.918V159.84H489.378V177.225H482.327L481.597 172.24C481.435 170.863 480.908 169.89 480.017 169.323C479.206 168.674 477.788 168.35 475.762 168.35H455.701C453.918 168.35 452.743 168.755 452.176 169.566C451.608 170.295 451.325 171.835 451.325 174.186V197.042H479.774V204.945H451.325V228.166C451.325 230.516 451.608 232.097 452.176 232.907C452.743 233.637 453.918 234.002 455.701 234.002H477.099C479.125 234.002 480.544 233.718 481.354 233.15C482.246 232.583 482.773 231.61 482.935 230.233L483.664 225.126H490.716V242.512H433.818ZM504.079 242.512V236.433L507.847 235.825C509.387 235.582 510.482 235.096 511.13 234.366C511.86 233.556 512.224 232.178 512.224 230.233V171.389C512.224 169.849 511.941 168.796 511.373 168.228C510.887 167.58 509.914 167.053 508.455 166.648L504.686 165.797V159.84H522.437L549.062 215.887L575.809 159.84H593.559V165.797L589.79 166.648C588.331 167.053 587.318 167.58 586.751 168.228C586.265 168.796 586.021 169.849 586.021 171.389V230.233C586.021 232.178 586.346 233.556 586.994 234.366C587.724 235.096 588.858 235.582 590.398 235.825L594.167 236.433V242.512H567.542V236.433L571.311 235.825C572.851 235.582 573.945 235.096 574.593 234.366C575.323 233.556 575.687 232.178 575.687 230.233V182.453L553.804 228.287H544.321L522.558 182.453V230.233C522.558 232.178 522.882 233.556 523.531 234.366C524.26 235.096 525.395 235.582 526.935 235.825L530.704 236.433V242.512H504.079ZM638.544 243.849C629.385 243.849 621.725 241.377 615.566 236.433C609.487 231.408 606.447 223.343 606.447 212.239V190.234C606.447 179.373 609.446 171.389 615.444 166.283C621.523 161.096 629.223 158.502 638.544 158.502C648.027 158.502 655.808 161.096 661.886 166.283C667.965 171.389 671.005 179.373 671.005 190.234V212.239C671.005 223.343 667.884 231.408 661.643 236.433C655.483 241.377 647.783 243.849 638.544 243.849ZM638.544 234.731C645.433 234.731 650.823 232.948 654.713 229.382C658.685 225.734 660.671 220.02 660.671 212.239V189.626C660.671 182.331 658.644 176.86 654.592 173.213C650.62 169.485 645.271 167.621 638.544 167.621C631.897 167.621 626.589 169.485 622.617 173.213C618.727 176.941 616.781 182.412 616.781 189.626V212.239C616.781 220.02 618.686 225.734 622.495 229.382C626.386 232.948 631.735 234.731 638.544 234.731ZM715.821 243.849C706.581 243.849 698.922 241.499 692.843 236.798C686.764 232.097 683.725 224.235 683.725 213.212V190.72C683.725 183.344 685.143 177.266 687.98 172.484C690.898 167.621 694.748 164.095 699.53 161.906C704.393 159.637 709.823 158.502 715.821 158.502C721.332 158.502 726.317 159.272 730.775 160.812C735.233 162.352 739.083 164.216 742.325 166.405C742.244 169.485 742 173.943 741.595 179.778L741.352 183.304H733.206L732.477 172.119C728.343 169.12 722.791 167.621 715.821 167.621C709.256 167.621 703.987 169.363 700.016 172.848C696.044 176.252 694.059 181.926 694.059 189.869V212.969C694.059 227.477 701.313 234.731 715.821 234.731C723.116 234.731 729.316 232.705 734.422 228.652H742.325V237.406C738.677 239.108 734.544 240.607 729.924 241.904C725.385 243.201 720.684 243.849 715.821 243.849ZM754.605 242.512V236.433L758.252 235.947C759.711 235.785 760.765 235.298 761.413 234.488C762.062 233.677 762.386 232.259 762.386 230.233V172.119C762.386 170.66 762.183 169.647 761.778 169.079C761.454 168.431 760.805 167.945 759.833 167.621L755.334 166.283V159.84H789.862C798.129 159.84 804.532 162.109 809.071 166.648C813.61 171.187 815.88 177.225 815.88 184.763C815.88 197.002 809.963 204.985 798.129 208.714L810.044 231.813C810.692 233.029 811.381 233.92 812.111 234.488C812.921 234.974 814.056 235.298 815.515 235.46L819.892 236.068V242.512H803.114L788.646 210.294H772.72V230.233C772.72 232.259 773.085 233.677 773.814 234.488C774.544 235.217 775.8 235.663 777.583 235.825L782.203 236.433V242.512H754.605ZM784.878 201.784C791.443 201.784 796.387 200.365 799.71 197.528C803.114 194.611 804.816 190.355 804.816 184.763C804.816 179.657 803.276 175.645 800.196 172.727C797.116 169.809 792.861 168.35 787.431 168.35H776.246C773.895 168.35 772.72 169.485 772.72 171.754V201.784H784.878ZM826.683 242.512V236.676L830.087 235.947C831.708 235.623 832.883 235.177 833.613 234.609C834.342 233.961 834.91 233.029 835.315 231.813L857.563 159.84H873.247L894.158 231.813C894.563 233.11 895.09 234.042 895.739 234.609C896.468 235.177 897.603 235.623 899.143 235.947L902.79 236.676V242.512H874.463V236.676L879.447 235.825C881.393 235.42 882.365 234.366 882.365 232.664C882.365 231.448 881.352 227.193 879.326 219.899H850.147C848.202 226.464 847.229 230.678 847.229 232.543C847.229 233.596 847.432 234.366 847.837 234.853C848.243 235.339 848.931 235.663 849.904 235.825L855.132 236.676V242.512H826.683ZM864.615 168.228L851.728 211.51H877.867L865.831 168.228H864.615ZM942.472 243.849C933.232 243.849 925.572 241.499 919.494 236.798C913.415 232.097 910.375 224.235 910.375 213.212V190.72C910.375 183.344 911.794 177.266 914.63 172.484C917.548 167.621 921.398 164.095 926.18 161.906C931.043 159.637 936.474 158.502 942.472 158.502C947.983 158.502 952.968 159.272 957.426 160.812C961.883 162.352 965.733 164.216 968.975 166.405C968.894 169.485 968.651 173.943 968.246 179.778L968.003 183.304H959.857L959.128 172.119C954.994 169.12 949.442 167.621 942.472 167.621C935.906 167.621 930.638 169.363 926.667 172.848C922.695 176.252 920.709 181.926 920.709 189.869V212.969C920.709 227.477 927.963 234.731 942.472 234.731C949.766 234.731 955.967 232.705 961.073 228.652H968.975V237.406C965.328 239.108 961.194 240.607 956.575 241.904C952.036 243.201 947.335 243.849 942.472 243.849ZM998.763 242.512V236.433L1002.77 235.825C1004.23 235.582 1005.33 235.096 1006.06 234.366C1006.79 233.556 1007.15 232.178 1007.15 230.233V211.631L984.903 168.107L977 165.675V159.84H1002.77V165.675L996.21 167.499L1012.5 201.905L1028.79 167.499L1022.23 165.675V159.84H1048V165.675L1040.1 168.107L1017.49 211.631V230.233C1017.49 232.178 1017.85 233.556 1018.58 234.366C1019.31 235.096 1020.4 235.582 1021.86 235.825L1025.87 236.433V242.512H998.763Z" fill="#3904E9"/>
<path d="M459.029 130.337C449.951 130.337 442.535 127.987 436.78 123.286C431.026 118.585 428.148 110.723 428.148 99.7V58.607C428.148 56.6617 427.784 55.3244 427.054 54.5949C426.325 53.7844 425.23 53.2576 423.772 53.0144L419.759 52.4065V46.3277H446.871V52.4065L442.859 53.0144C441.4 53.2576 440.306 53.7844 439.577 54.5949C438.847 55.3244 438.482 56.6617 438.482 58.607V99.4568C438.482 106.589 440.225 112.02 443.71 115.748C447.195 119.395 452.302 121.219 459.029 121.219C465.837 121.219 470.984 119.395 474.469 115.748C478.035 112.02 479.818 106.589 479.818 99.4568V58.607C479.818 56.6617 479.454 55.3244 478.724 54.5949C477.995 53.7844 476.901 53.2576 475.442 53.0144L471.43 52.4065V46.3277H498.541V52.4065L494.529 53.0144C493.07 53.2576 491.976 53.7844 491.247 54.5949C490.517 55.3244 490.153 56.6617 490.153 58.607V99.7C490.153 110.723 487.235 118.585 481.399 123.286C475.644 127.987 468.188 130.337 459.029 130.337ZM504.689 129V123.164L508.093 122.435C509.714 122.111 510.889 121.665 511.618 121.098C512.348 120.449 512.915 119.517 513.321 118.301L535.569 46.3277H551.253L572.164 118.301C572.569 119.598 573.096 120.53 573.744 121.098C574.474 121.665 575.608 122.111 577.148 122.435L580.796 123.164V129H552.468V123.164L557.453 122.313C559.398 121.908 560.371 120.854 560.371 119.152C560.371 117.937 559.358 113.681 557.331 106.387H528.153C526.208 112.952 525.235 117.167 525.235 119.031C525.235 120.084 525.438 120.854 525.843 121.341C526.248 121.827 526.937 122.151 527.91 122.313L533.138 123.164V129H504.689ZM542.621 54.7165L529.733 97.9979H555.872L543.836 54.7165H542.621ZM588.867 129V122.921L592.271 122.313C593.974 121.989 595.027 121.462 595.432 120.733C595.838 120.003 596.04 118.666 596.04 116.721V58.607C596.04 56.6617 595.716 55.2839 595.068 54.4734C594.5 53.6628 593.366 53.1765 591.664 53.0144L587.652 52.4065V46.3277H614.763V52.4065L610.751 53.0144C609.049 53.1765 607.874 53.6628 607.225 54.4734C606.658 55.2839 606.374 56.6617 606.374 58.607V115.87C606.374 117.734 606.699 118.99 607.347 119.639C607.995 120.206 609.333 120.49 611.359 120.49H630.69C632.23 120.49 633.324 120.206 633.972 119.639C634.702 118.99 635.148 118.018 635.31 116.721L636.039 111.615H643.091V129H588.867ZM654.583 129V122.921L658.595 122.313C660.054 122.07 661.149 121.584 661.878 120.854C662.607 120.044 662.972 118.666 662.972 116.721V58.607C662.972 56.6617 662.607 55.3244 661.878 54.5949C661.149 53.7844 660.054 53.2576 658.595 53.0144L654.583 52.4065V46.3277H681.695V52.4065L677.683 53.0144C676.224 53.2576 675.13 53.7844 674.4 54.5949C673.671 55.3244 673.306 56.6617 673.306 58.607V116.721C673.306 118.666 673.671 120.044 674.4 120.854C675.13 121.584 676.224 122.07 677.683 122.313L681.695 122.921V129H654.583ZM695.563 129V120.49L739.331 55.0812H710.031C708.896 55.0812 708.005 55.3649 707.356 55.9323C706.789 56.4996 706.424 57.5128 706.262 58.9717L705.654 64.5642H697.995V46.3277H752.461V54.9597L708.329 120.246H740.425C741.641 120.246 742.533 119.963 743.1 119.395C743.667 118.828 744.032 117.815 744.194 116.356L744.802 110.763H752.461V129H695.563ZM765.18 129V122.921L767.977 122.313C769.517 121.989 770.611 121.462 771.259 120.733C771.989 120.003 772.353 118.666 772.353 116.721V58.607C772.353 56.6617 771.948 55.3244 771.138 54.5949C770.327 53.8655 769.03 53.2981 767.247 52.8929L765.18 52.4065V46.3277H820.741V63.7132H813.69L812.96 58.7285C812.798 57.3507 812.271 56.3781 811.38 55.8107C810.569 55.1623 809.151 54.8381 807.124 54.8381H787.064C785.281 54.8381 784.106 55.2433 783.538 56.0539C782.971 56.7833 782.687 58.3233 782.687 60.6738V83.5302H811.136V91.4327H782.687V114.654C782.687 117.004 782.971 118.585 783.538 119.395C784.106 120.125 785.281 120.49 787.064 120.49H808.462C810.488 120.49 811.906 120.206 812.717 119.639C813.609 119.071 814.135 118.099 814.297 116.721L815.027 111.615H822.078V129H765.18ZM866.93 129V122.921L869.848 122.313C871.388 121.989 872.482 121.462 873.13 120.733C873.779 120.003 874.103 118.666 874.103 116.721V57.148C874.103 55.6081 873.819 54.5544 873.252 53.987C872.765 53.4197 871.833 53.055 870.456 52.8929L866.93 52.4065V46.3277H902.309C912.44 46.3277 920.424 49.8129 926.259 56.7833C932.095 63.6727 935.013 74.2093 935.013 88.3933C935.013 95.4448 933.838 102.05 931.487 108.21C929.218 114.289 925.449 119.274 920.18 123.164C914.993 127.055 908.266 129 899.999 129H866.93ZM900.242 120.49C907.212 120.49 912.967 117.977 917.506 112.952C922.045 107.927 924.314 99.7405 924.314 88.3933C924.314 76.884 922.369 68.4142 918.478 62.9837C914.669 57.5533 908.914 54.8381 901.214 54.8381H888.814C887.031 54.8381 885.855 55.1218 885.288 55.6891C884.721 56.2565 884.437 57.5128 884.437 59.458V115.748C884.437 117.369 884.558 118.504 884.802 119.152C885.045 119.72 885.409 120.084 885.896 120.246C886.463 120.409 887.436 120.49 888.814 120.49H900.242ZM942.555 129V123.164L945.96 122.435C947.581 122.111 948.756 121.665 949.485 121.098C950.215 120.449 950.782 119.517 951.187 118.301L973.436 46.3277H989.119L1010.03 118.301C1010.44 119.598 1010.96 120.53 1011.61 121.098C1012.34 121.665 1013.48 122.111 1015.02 122.435L1018.66 123.164V129H990.335V123.164L995.32 122.313C997.265 121.908 998.238 120.854 998.238 119.152C998.238 117.937 997.225 113.681 995.198 106.387H966.02C964.075 112.952 963.102 117.167 963.102 119.031C963.102 120.084 963.305 120.854 963.71 121.341C964.115 121.827 964.804 122.151 965.777 122.313L971.004 123.164V129H942.555ZM980.487 54.7165L967.6 97.9979H993.739L981.703 54.7165H980.487ZM1033.2 129V122.921L1037.21 122.313C1038.67 122.07 1039.77 121.584 1040.5 120.854C1041.23 120.044 1041.59 118.666 1041.59 116.721V65.4153C1041.59 62.5785 1041.51 59.0528 1041.35 54.8381H1028.7C1027.57 54.8381 1026.68 55.1218 1026.03 55.6891C1025.46 56.2565 1025.1 57.2696 1024.93 58.7285L1024.33 63.1053H1017.15V46.3277H1076.36V63.1053H1069.19L1068.58 58.7285C1068.42 57.2696 1068.05 56.2565 1067.49 55.6891C1066.92 55.1218 1066.03 54.8381 1064.81 54.8381H1052.17C1052.01 59.0528 1051.92 62.5785 1051.92 65.4153V116.721C1051.92 118.666 1052.29 120.044 1053.02 120.854C1053.75 121.584 1054.84 122.07 1056.3 122.313L1060.31 122.921V129H1033.2ZM1074.82 129V123.164L1078.22 122.435C1079.84 122.111 1081.02 121.665 1081.75 121.098C1082.48 120.449 1083.04 119.517 1083.45 118.301L1105.7 46.3277H1121.38L1142.29 118.301C1142.7 119.598 1143.23 120.53 1143.87 121.098C1144.6 121.665 1145.74 122.111 1147.28 122.435L1150.92 123.164V129H1122.6V123.164L1127.58 122.313C1129.53 121.908 1130.5 120.854 1130.5 119.152C1130.5 117.937 1129.49 113.681 1127.46 106.387H1098.28C1096.34 112.952 1095.36 117.167 1095.36 119.031C1095.36 120.084 1095.57 120.854 1095.97 121.341C1096.38 121.827 1097.07 122.151 1098.04 122.313L1103.27 123.164V129H1074.82ZM1112.75 54.7165L1099.86 97.9979H1126L1113.97 54.7165H1112.75Z" fill="#3904E9"/>
</svg>
