<?xml version="1.0" encoding="utf-8"?>
<!-- Generator: Adobe Illustrator 18.0.0, SVG Export Plug-In . SVG Version: 6.00 Build 0)  -->
<!DOCTYPE svg PUBLIC "-//W3C//DTD SVG 1.1//EN" "http://www.w3.org/Graphics/SVG/1.1/DTD/svg11.dtd">
<svg version="1.1" xmlns="http://www.w3.org/2000/svg" xmlns:xlink="http://www.w3.org/1999/xlink" x="0px" y="0px"
	 viewBox="0 0 1616 732" enable-background="new 0 0 1616 732" xml:space="preserve">
<g id="Layer_1">
	<g>
		<g>
			<path fill="#7AB800" d="M797.3,243.2c-16.9,0-28.2-12-28.2-27.7c0-15.7,11.3-27.7,28.2-27.7c16.8,0,28.1,12.1,28.1,27.7
				C825.4,231.1,814.2,243.2,797.3,243.2z M797.3,198.2c-9.7,0-15.3,6.5-15.3,17.3c0,10.9,5.7,17.3,15.3,17.3
				c9.6,0,15.2-6.4,15.2-17.3C812.6,204.7,806.9,198.2,797.3,198.2z"/>
			<path fill="#7AB800" d="M860.3,224.5v18.1h-12.6v-54.2h19.1c15.2,0,21.8,7.7,21.8,17.7c0,10.8-6.8,18.4-21.8,18.4H860.3z
				 M860.3,215h6.5c6.5,0,9.2-3.3,9.2-8.9c0-4.9-2.9-8.3-9.2-8.3h-6.5V215z"/>
			<path fill="#7AB800" d="M946.5,188.4v9.7h-22.2v12.6h17v9.3h-17v12.9h22.2v9.7h-34.9v-54.2H946.5z"/>
			<path fill="#7AB800" d="M983.6,190.3l25.7,32.5c-0.2-2.1-0.3-4.1-0.3-5.8v-28.7h11.1v54.2h-6.5c-1.9,0-3.2-0.5-4.4-2.1
				l-25.5-32.3c0.1,1.9,0.3,3.7,0.3,5.3v29h-11.1v-54.2h6.6C981.6,188.4,982.3,188.7,983.6,190.3z"/>
		</g>
		<g>
			<path fill="#7AB800" d="M784.5,310.8h2c1.9,0,3.2-0.6,4-1.7l12.2-17.7c1.3-1.9,2.9-2.5,5.4-2.5h10.9L803,310.8
				c-1.2,1.6-2.4,2.6-3.7,3.3c1.9,0.7,3.4,1.8,4.7,3.9l16.4,25.1h-11.2c-2.9,0-3.9-0.8-4.9-2.3L792,321.9c-0.9-1.4-2.1-1.9-4.5-1.9
				h-3v23.1H772v-54.2h12.6V310.8z"/>
			<path fill="#7AB800" d="M855.1,290.8l25.7,32.5c-0.2-2.1-0.3-4.1-0.3-5.8v-28.7h11.1v54.2h-6.5c-1.9,0-3.2-0.5-4.4-2.1
				l-25.5-32.3c0.1,1.9,0.3,3.7,0.3,5.3v29h-11.1v-54.2h6.6C853.1,288.9,853.7,289.1,855.1,290.8z"/>
			<path fill="#7AB800" d="M943.8,343.7c-16.9,0-28.2-12-28.2-27.7c0-15.7,11.3-27.7,28.2-27.7c16.8,0,28.1,12.1,28.1,27.7
				C971.9,331.6,960.6,343.7,943.8,343.7z M943.8,298.7c-9.7,0-15.3,6.5-15.3,17.3c0,10.9,5.7,17.3,15.3,17.3
				c9.6,0,15.2-6.4,15.2-17.3C959,305.2,953.4,298.7,943.8,298.7z"/>
			<path fill="#7AB800" d="M985.7,288.9h10.6c2.2,0,3.7,1.1,4.2,2.7l7.4,28.3c0.5,1.8,1,3.9,1.3,6.2c0.5-2.3,1.1-4.4,1.7-6.2
				l8.8-28.3c0.4-1.4,2-2.7,4.1-2.7h3.7c2.2,0,3.6,1,4.2,2.7l8.7,28.3c0.6,1.7,1.2,3.7,1.6,5.9c0.4-2.2,0.8-4.2,1.3-5.9l7.4-28.3
				c0.4-1.5,2-2.7,4.1-2.7h9.9l-16.7,54.2h-11.4l-10.2-33.6c-0.3-1-0.7-2.3-1.1-3.7c-0.3,1.4-0.7,2.6-1.1,3.7l-10.3,33.6h-11.4
				L985.7,288.9z"/>
			<path fill="#7AB800" d="M1099.8,333h20.1v10h-32.7v-54.2h12.6V333z"/>
			<path fill="#7AB800" d="M1181.5,288.9v9.7h-22.2v12.6h17v9.3h-17v12.9h22.2v9.7h-34.9v-54.2H1181.5z"/>
			<path fill="#7AB800" d="M1228.9,343.1h-21v-54.2h21c16.8,0,28.1,11.5,28.1,27.1C1257.1,331.6,1245.8,343.1,1228.9,343.1z
				 M1228.9,298.5h-8.4v34.8h8.4c9.6,0,15.2-6.6,15.2-17.4C1244.2,305.2,1238.5,298.5,1228.9,298.5z"/>
			<path fill="#7AB800" d="M1313.4,332.3v-8.2h-5.4c-1.6,0-2.5-0.9-2.5-2.2V315h19.3v22.9c-5.5,4.1-11.9,5.8-20.8,5.8
				c-15.8,0-27.7-11.8-27.7-27.7c0-16.2,11.2-27.7,28.6-27.7c9.1,0,15.8,3.1,20.2,7.3l-3.6,5.5c-0.7,1-1.7,1.7-2.8,1.7
				c-0.7,0-1.5-0.3-2.3-0.7c-4-2.4-6.8-3.4-11.8-3.4c-9.4,0-15.3,6.9-15.3,17.3c0,11.5,6.7,18,15.8,18
				C1308.4,334,1311,333.4,1313.4,332.3z"/>
			<path fill="#7AB800" d="M1385.1,288.9v9.7h-22.2v12.6h17v9.3h-17v12.9h22.2v9.7h-34.9v-54.2H1385.1z"/>
		</g>
		<g>
			<path fill="#7AB800" d="M806.8,389.4v9.7h-22.2v13.7h18.5v9.7h-18.5v21.1H772v-54.2H806.8z"/>
			<path fill="#7AB800" d="M889.2,416.4c0,3.9-0.7,7.6-2,10.9c-1.4,3.4-3.3,6.3-5.7,8.8c-2.5,2.5-5.4,4.4-8.9,5.9
				c-3.5,1.4-7.3,2.1-11.5,2.1s-8.1-0.7-11.5-2.1c-3.5-1.4-6.4-3.4-8.9-5.9c-2.5-2.5-4.4-5.4-5.7-8.8c-1.4-3.4-2-7-2-10.9
				s0.7-7.6,2-10.9c1.4-3.4,3.3-6.3,5.7-8.8c2.5-2.5,5.4-4.4,8.9-5.8s7.3-2.1,11.5-2.1s8.1,0.7,11.5,2.1s6.4,3.4,8.9,5.9
				c2.5,2.5,4.4,5.4,5.7,8.8C888.5,408.9,889.2,412.5,889.2,416.4z M876.3,416.4c0-2.7-0.3-5.1-1-7.2c-0.7-2.1-1.7-4-3-5.4
				c-1.3-1.5-2.9-2.6-4.8-3.4c-1.9-0.8-4-1.2-6.4-1.2c-2.4,0-4.6,0.4-6.5,1.2c-1.9,0.8-3.5,1.9-4.8,3.4c-1.3,1.5-2.3,3.3-3,5.4
				c-0.7,2.1-1,4.6-1,7.2c0,2.7,0.3,5.1,1,7.3c0.7,2.1,1.7,4,3,5.4c1.3,1.5,2.9,2.6,4.8,3.4c1.9,0.8,4.1,1.2,6.5,1.2
				c2.4,0,4.5-0.4,6.4-1.2c1.9-0.8,3.5-1.9,4.8-3.4c1.3-1.5,2.3-3.3,3-5.4C876,421.6,876.3,419.1,876.3,416.4z"/>
			<path fill="#7AB800" d="M940.1,433.6c1.7,0,3.2-0.3,4.5-0.8s2.4-1.4,3.4-2.4c0.9-1,1.6-2.3,2.1-3.8c0.5-1.5,0.7-3.2,0.7-5.1
				v-32.1h12.6v32.1c0,3.3-0.5,6.4-1.6,9.1c-1.1,2.8-2.6,5.2-4.6,7.2c-2,2-4.5,3.6-7.3,4.7c-2.9,1.1-6.1,1.7-9.7,1.7
				c-3.6,0-6.9-0.6-9.7-1.7c-2.9-1.1-5.3-2.7-7.3-4.7c-2-2-3.5-4.4-4.6-7.2c-1.1-2.8-1.6-5.8-1.6-9.1v-32.1h12.6v32.1
				c0,1.9,0.2,3.6,0.7,5.1c0.5,1.5,1.2,2.8,2.1,3.8c0.9,1.1,2,1.9,3.4,2.4S938.4,433.6,940.1,433.6z"/>
			<path fill="#7AB800" d="M1001.8,389.4c0.4,0,0.7,0.1,1,0.3c0.3,0.1,0.6,0.3,0.9,0.6s0.6,0.6,0.9,1l25.7,32.5
				c-0.1-1-0.2-2.1-0.2-3c-0.1-1-0.1-1.9-0.1-2.8v-28.7h11.1v54.2h-6.5c-1,0-1.8-0.1-2.5-0.4s-1.3-0.8-1.9-1.6l-25.6-32.3
				c0.1,0.9,0.1,1.9,0.2,2.8c0.1,0.9,0.1,1.8,0.1,2.5v29h-11.1v-54.2h6.6C1001,389.4,1001.5,389.4,1001.8,389.4z"/>
			<path fill="#7AB800" d="M1121.5,416.4c0,3.9-0.7,7.5-2,10.8c-1.4,3.3-3.3,6.2-5.7,8.6c-2.5,2.4-5.4,4.3-8.9,5.7
				c-3.5,1.4-7.3,2-11.5,2h-21.1v-54.2h21.1c4.2,0,8.1,0.7,11.5,2c3.5,1.4,6.4,3.2,8.9,5.7c2.5,2.4,4.4,5.3,5.7,8.6
				C1120.9,408.9,1121.5,412.5,1121.5,416.4z M1108.7,416.4c0-2.7-0.3-5.1-1-7.3c-0.7-2.2-1.7-4-3-5.5c-1.3-1.5-2.9-2.7-4.8-3.5
				c-1.9-0.8-4-1.2-6.4-1.2h-8.4v34.8h8.4c2.4,0,4.5-0.4,6.4-1.2c1.9-0.8,3.5-2,4.8-3.5c1.3-1.5,2.3-3.3,3-5.5
				C1108.3,421.6,1108.7,419.1,1108.7,416.4z"/>
			<path fill="#7AB800" d="M1200.3,443.5h-9.7c-1.1,0-2-0.3-2.7-0.8c-0.7-0.5-1.2-1.2-1.5-2l-3.2-9.4h-20.6l-3.2,9.4
				c-0.2,0.7-0.7,1.3-1.5,1.9s-1.6,0.8-2.6,0.8h-9.8l21-54.2h12.9L1200.3,443.5z M1165.5,422.8h14.8l-5-14.8
				c-0.3-0.9-0.7-2.1-1.1-3.3c-0.4-1.3-0.9-2.7-1.3-4.1c-0.4,1.5-0.8,2.9-1.2,4.2s-0.8,2.4-1.2,3.3L1165.5,422.8z"/>
			<path fill="#7AB800" d="M1266.4,389.4v10h-15.2v44.2h-12.6v-44.2h-15.2v-10H1266.4z"/>
			<path fill="#7AB800" d="M1307.6,443.5H1295v-54.2h12.6V443.5z"/>
			<path fill="#7AB800" d="M1393.5,416.4c0,3.9-0.7,7.6-2,10.9c-1.4,3.4-3.3,6.3-5.7,8.8c-2.5,2.5-5.4,4.4-8.9,5.9
				c-3.5,1.4-7.3,2.1-11.5,2.1s-8.1-0.7-11.5-2.1c-3.5-1.4-6.4-3.4-8.9-5.9c-2.5-2.5-4.4-5.4-5.7-8.8c-1.4-3.4-2-7-2-10.9
				s0.7-7.6,2-10.9c1.4-3.4,3.3-6.3,5.7-8.8s5.4-4.4,8.9-5.8c3.5-1.4,7.3-2.1,11.5-2.1s8.1,0.7,11.5,2.1s6.4,3.4,8.9,5.9
				c2.5,2.5,4.4,5.4,5.7,8.8C1392.8,408.9,1393.5,412.5,1393.5,416.4z M1380.6,416.4c0-2.7-0.3-5.1-1-7.2s-1.7-4-3-5.4
				c-1.3-1.5-2.9-2.6-4.8-3.4c-1.9-0.8-4-1.2-6.4-1.2c-2.4,0-4.6,0.4-6.5,1.2c-1.9,0.8-3.5,1.9-4.8,3.4c-1.3,1.5-2.3,3.3-3,5.4
				c-0.7,2.1-1,4.6-1,7.2c0,2.7,0.3,5.1,1,7.3c0.7,2.1,1.7,4,3,5.4c1.3,1.5,2.9,2.6,4.8,3.4c1.9,0.8,4.1,1.2,6.5,1.2
				c2.4,0,4.6-0.4,6.4-1.2c1.9-0.8,3.5-1.9,4.8-3.4c1.3-1.5,2.3-3.3,3-5.4S1380.6,419.1,1380.6,416.4z"/>
			<path fill="#7AB800" d="M1429.8,389.4c0.4,0,0.7,0.1,1,0.3c0.3,0.1,0.6,0.3,0.9,0.6c0.3,0.2,0.6,0.6,0.9,1l25.7,32.5
				c-0.1-1-0.2-2.1-0.2-3c-0.1-1-0.1-1.9-0.1-2.8v-28.7h11.1v54.2h-6.5c-1,0-1.8-0.1-2.5-0.4c-0.7-0.3-1.3-0.8-1.9-1.6l-25.5-32.3
				c0.1,0.9,0.1,1.9,0.2,2.8c0,0.9,0.1,1.8,0.1,2.5v29h-11.1v-54.2h6.6C1429,389.4,1429.4,389.4,1429.8,389.4z"/>
			<path fill="#7AB800" d="M797.7,527.6c1.4,0,2.8-0.1,4-0.2c1.2-0.1,2.3-0.3,3.4-0.6c1.1-0.3,2.1-0.6,3-1c0.9-0.4,1.9-0.8,2.8-1.3
				v-11.8h-8.3c-0.5,0-0.8-0.1-1.1-0.4c-0.3-0.3-0.4-0.6-0.4-1v-4.1h16.4v20.5c-1.3,1-2.7,1.8-4.2,2.5c-1.5,0.7-3,1.3-4.6,1.8
				c-1.7,0.5-3.4,0.8-5.3,1.1c-1.9,0.2-3.9,0.4-6.1,0.4c-3.9,0-7.4-0.7-10.6-2c-3.2-1.3-6-3.2-8.3-5.6c-2.3-2.4-4.1-5.3-5.4-8.6
				c-1.3-3.3-2-7-2-11c0-4.1,0.6-7.8,1.9-11.1c1.3-3.3,3.1-6.2,5.5-8.6c2.4-2.4,5.2-4.2,8.6-5.6s7.1-2,11.3-2c2.1,0,4.1,0.2,5.9,0.5
				c1.8,0.3,3.5,0.8,5,1.3c1.5,0.6,3,1.3,4.3,2.1c1.3,0.8,2.5,1.8,3.7,2.8l-2,3.3c-0.4,0.7-1,1-1.6,1c-0.4,0-0.8-0.1-1.3-0.4
				c-0.6-0.3-1.3-0.8-2.1-1.3c-0.8-0.5-1.7-1-2.8-1.4s-2.4-0.8-3.9-1.2s-3.3-0.5-5.3-0.5c-3,0-5.7,0.5-8.1,1.5
				c-2.4,1-4.5,2.4-6.2,4.2s-3,4-3.9,6.6c-0.9,2.6-1.4,5.5-1.4,8.7c0,3.4,0.5,6.4,1.4,9s2.3,4.9,4,6.7c1.7,1.8,3.8,3.2,6.2,4.2
				S794.9,527.6,797.7,527.6z"/>
			<path fill="#7AB800" d="M883.7,479.5v5.9h-25.6v17.7h20.7v5.7h-20.7v18.2h25.6v5.9h-32.8v-53.3H883.7z"/>
			<path fill="#7AB800" d="M924.3,510.6v22.2h-7.2v-53.3h15.1c3.4,0,6.3,0.3,8.7,1c2.5,0.7,4.5,1.7,6.1,3c1.6,1.3,2.8,2.8,3.6,4.7
				c0.8,1.8,1.2,3.9,1.2,6.1c0,1.9-0.3,3.6-0.9,5.3c-0.6,1.6-1.5,3.1-2.6,4.4c-1.1,1.3-2.5,2.4-4.1,3.3c-1.6,0.9-3.5,1.6-5.5,2.1
				c0.9,0.5,1.7,1.3,2.4,2.3l15.5,21.2h-6.4c-1.3,0-2.3-0.5-2.9-1.5l-13.8-19c-0.4-0.6-0.9-1-1.4-1.3c-0.5-0.3-1.2-0.4-2.2-0.4
				H924.3z M924.3,505.3h7.6c2.1,0,4-0.3,5.6-0.8c1.6-0.5,2.9-1.2,4-2.2s1.9-2,2.4-3.3s0.8-2.7,0.8-4.3c0-3.2-1-5.6-3.1-7.2
				c-2.1-1.6-5.2-2.4-9.4-2.4h-7.9V505.3z"/>
			<path fill="#7AB800" d="M1013.8,515.4c0.3,0.7,0.5,1.3,0.8,2c0.2-0.7,0.5-1.4,0.8-2c0.3-0.6,0.6-1.3,0.9-1.9l18-32.8
				c0.3-0.6,0.7-0.9,1-1c0.3-0.1,0.8-0.2,1.5-0.2h5.3v53.3h-6.3v-39.2c0-0.5,0-1.1,0-1.7c0-0.6,0.1-1.2,0.1-1.8l-18.3,33.3
				c-0.6,1.1-1.5,1.7-2.6,1.7h-1c-1.1,0-2-0.6-2.6-1.7L992.7,490c0.1,0.6,0.1,1.3,0.2,1.9c0,0.6,0.1,1.2,0.1,1.7v39.2h-6.3v-53.3
				h5.3c0.6,0,1.1,0.1,1.5,0.2s0.7,0.5,1,1l18.4,32.8C1013.2,514.1,1013.5,514.8,1013.8,515.4z"/>
			<path fill="#7AB800" d="M1121.2,532.8h-5.6c-0.6,0-1.2-0.2-1.6-0.5s-0.7-0.7-0.9-1.2l-5-12.9h-23.9l-5,12.9
				c-0.2,0.4-0.5,0.8-0.9,1.2c-0.4,0.3-0.9,0.5-1.6,0.5h-5.6l21.3-53.3h7.3L1121.2,532.8z M1086.3,513h19.9l-8.4-21.7
				c-0.5-1.3-1.1-3-1.6-5c-0.3,1-0.5,2-0.8,2.8c-0.3,0.9-0.5,1.6-0.8,2.2L1086.3,513z"/>
			<path fill="#7AB800" d="M1155.4,479.7c0.3,0.2,0.7,0.5,1.1,1l30.9,40.2c-0.1-0.6-0.1-1.3-0.1-1.9c0-0.6,0-1.2,0-1.8v-37.7h6.3
				v53.3h-3.6c-0.6,0-1-0.1-1.4-0.3c-0.4-0.2-0.8-0.5-1.1-1l-30.8-40.1c0,0.6,0.1,1.2,0.1,1.8c0,0.6,0,1.1,0,1.6v38h-6.3v-53.3h3.7
				C1154.6,479.5,1155.1,479.6,1155.4,479.7z"/>
			<path fill="#7AB800" d="M1249.3,511.6v21.2h-7.2v-21.2l-19.5-32.1h6.3c0.6,0,1.2,0.2,1.5,0.5c0.4,0.3,0.7,0.7,1,1.2l12.2,20.7
				c0.5,0.9,0.9,1.7,1.2,2.5c0.3,0.8,0.6,1.5,0.9,2.3c0.3-0.8,0.6-1.5,0.9-2.3s0.7-1.6,1.2-2.4l12.2-20.7c0.2-0.4,0.5-0.8,0.9-1.1
				s0.9-0.5,1.5-0.5h6.4L1249.3,511.6z"/>
		</g>
	</g>
	<g>
		
			<rect x="306.7" y="293.4" transform="matrix(7.805014e-02 0.9969 -0.9969 7.805014e-02 644.1511 -94.2845)" fill="#FF0000" width="132.7" height="15.4"/>
		
			<rect x="295" y="295.4" transform="matrix(0.2547 0.967 -0.967 0.2547 562.4851 -123.5685)" fill="#FF0000" width="132.7" height="15.4"/>
		
			<rect x="283.9" y="299.4" transform="matrix(0.4231 0.9061 -0.9061 0.4231 480.3443 -140.2155)" fill="#FF0000" width="132.7" height="15.4"/>
		
			<rect x="273.7" y="305.4" transform="matrix(0.578 0.816 -0.816 0.578 398.9683 -145.401)" fill="#FF0000" width="132.7" height="15.4"/>
		
			<rect x="264.7" y="313" transform="matrix(0.7144 0.6997 -0.6997 0.7144 318.9932 -140.0674)" fill="#FF0000" width="132.7" height="15.4"/>
		
			<rect x="257.2" y="322.2" transform="matrix(0.8278 0.561 -0.561 0.8278 240.8144 -124.7446)" fill="#FF0000" width="132.7" height="15.4"/>
		
			<rect x="251.5" y="332.5" transform="matrix(0.9146 0.4043 -0.4043 0.9146 164.6901 -99.4704)" fill="#FF0000" width="132.7" height="15.4"/>
		
			<rect x="247.7" y="343.7" transform="matrix(0.9721 0.2345 -0.2345 0.9721 91.1728 -63.8582)" fill="#FF0000" width="132.7" height="15.4"/>
		
			<rect x="246" y="355.4" transform="matrix(0.9984 5.731842e-02 -5.731842e-02 0.9984 21.3264 -17.3069)" fill="#FF0000" width="132.7" height="15.4"/>
		
			<rect x="305" y="308.6" transform="matrix(0.1217 0.9926 -0.9926 0.1217 646.8031 18.8637)" fill="#FF0000" width="15.4" height="132.7"/>
		
			<rect x="307.5" y="320.1" transform="matrix(0.297 0.9549 -0.9549 0.297 590.6494 -29.3046)" fill="#FF0000" width="15.4" height="132.7"/>
		
			<rect x="312" y="331" transform="matrix(0.4626 0.8866 -0.8866 0.4626 524.1664 -69.8921)" fill="#FF0000" width="15.4" height="132.7"/>
		
			<rect x="318.4" y="341" transform="matrix(0.6134 0.7898 -0.7898 0.6134 447.7962 -100.0752)" fill="#FF0000" width="15.4" height="132.7"/>
		
			<rect x="326.5" y="349.6" transform="matrix(0.7445 0.6676 -0.6676 0.7445 363.1203 -116.8119)" fill="#FF0000" width="15.4" height="132.7"/>
		
			<rect x="335.9" y="356.7" transform="matrix(0.8517 0.5241 -0.5241 0.8517 272.707 -117.343)" fill="#FF0000" width="15.4" height="132.7"/>
		
			<rect x="346.5" y="362" transform="matrix(0.9315 0.3637 -0.3637 0.9315 180.0317 -99.4929)" fill="#FF0000" width="15.4" height="132.7"/>
		
			<rect x="357.9" y="365.3" transform="matrix(0.9815 0.1916 -0.1916 0.9815 89.4735 -62.0477)" fill="#FF0000" width="15.4" height="132.7"/>
		
			<rect x="369.6" y="366.5" transform="matrix(0.9999 1.331524e-02 -1.331524e-02 0.9999 5.7968 -4.9858)" fill="#FF0000" width="15.4" height="132.7"/>
		
			<rect x="322.8" y="424.2" transform="matrix(0.1653 0.9862 -0.9862 0.1653 750.7871 -23.2215)" fill="#FF0000" width="132.7" height="15.4"/>
		
			<rect x="334.2" y="421.2" transform="matrix(0.3386 0.9409 -0.9409 0.3386 668.5064 -93.1895)" fill="#FF0000" width="132.7" height="15.4"/>
		
			<rect x="344.9" y="416.3" transform="matrix(0.5011 0.8654 -0.8654 0.5011 572.062 -144.3874)" fill="#FF0000" width="132.7" height="15.4"/>
		
			<rect x="354.6" y="409.4" transform="matrix(0.6475 0.7621 -0.7621 0.6475 466.2996 -173.7178)" fill="#FF0000" width="132.7" height="15.4"/>
		
			<rect x="362.8" y="401" transform="matrix(0.7731 0.6343 -0.6343 0.7731 356.6436 -179.4964)" fill="#FF0000" width="132.7" height="15.4"/>
		
			<rect x="369.5" y="391.2" transform="matrix(0.8739 0.4862 -0.4862 0.8739 248.9423 -161.5793)" fill="#FF0000" width="132.7" height="15.4"/>
		
			<rect x="374.3" y="380.4" transform="matrix(0.9466 0.3224 -0.3224 0.9466 148.6914 -121.3519)" fill="#FF0000" width="132.7" height="15.4"/>
		
			<rect x="377.1" y="369" transform="matrix(0.9889 0.1483 -0.1483 0.9889 60.7725 -61.6059)" fill="#FF0000" width="132.7" height="15.4"/>
		
			<rect x="436.4" y="298.5" transform="matrix(3.056177e-02 0.9995 -0.9995 3.056177e-02 795.2478 -90.2153)" fill="#FF0000" width="15.4" height="132.7"/>
		
			<rect x="435" y="286.8" transform="matrix(0.2085 0.978 -0.978 0.2085 695.7941 -153.4744)" fill="#FF0000" width="15.4" height="132.7"/>
		
			<rect x="431.5" y="275.5" transform="matrix(0.3796 0.9251 -0.9251 0.3796 588.7186 -194.2759)" fill="#FF0000" width="15.4" height="132.7"/>
		
			<rect x="426.1" y="265" transform="matrix(0.5386 0.8425 -0.8425 0.5386 479.3129 -212.596)" fill="#FF0000" width="15.4" height="132.7"/>
		
			<rect x="418.8" y="255.6" transform="matrix(0.6803 0.7329 -0.7329 0.6803 372.3686 -209.6785)" fill="#FF0000" width="15.4" height="132.7"/>
		
			<rect x="410.1" y="247.7" transform="matrix(0.8003 0.5997 -0.5997 0.8003 271.794 -187.768)" fill="#FF0000" width="15.4" height="132.7"/>
		
			<rect x="400" y="241.5" transform="matrix(0.8944 0.4473 -0.4473 0.8944 180.76 -149.8361)" fill="#FF0000" width="15.4" height="132.7"/>
		
			<rect x="389" y="237.2" transform="matrix(0.9599 0.2805 -0.2805 0.9599 101.0685 -99.0786)" fill="#FF0000" width="15.4" height="132.7"/>
		
			<rect x="377.4" y="234.9" transform="matrix(0.9945 0.1047 -0.1047 0.9945 33.6745 -38.6771)" fill="#FF0000" width="15.4" height="132.7"/>
	</g>
	
		<rect x="548.3" y="38.3" transform="matrix(0.8011 0.5985 -0.5985 0.8011 186.0815 -309.5263)" fill="#7AB800" width="21" height="173.9"/>
	
		<rect x="482.3" y="95.4" transform="matrix(0.8951 0.4459 -0.4459 0.8951 112.9156 -205.3192)" fill="#7AB800" width="21" height="83.8"/>
	
		<rect x="446.2" y="31.7" transform="matrix(0.9603 0.2789 -0.2789 0.9603 45.3374 -123.5175)" fill="#7AB800" width="21" height="131.7"/>
	<polygon fill="#7AB800" points="411.2,154.5 390.3,152.4 398.9,69.1 419.8,71.2 	"/>
	<polygon fill="#7AB800" points="351.9,153.7 344.7,60.1 365.7,58.5 372.8,152.1 	"/>
	<polygon fill="#7AB800" points="314.3,161.9 298.1,99.8 318.4,94.4 334.7,156.6 	"/>
	
		<rect x="257.8" y="142.2" transform="matrix(0.4219 0.9066 -0.9066 0.4219 299.9241 -164.9579)" fill="#7AB800" width="43.1" height="21"/>
	<polygon fill="#7AB800" points="246.6,197.5 236.9,183.7 254,171.6 263.8,185.4 	"/>
	<polygon fill="#7AB800" points="218.6,223.8 169.3,175.4 184,160.4 233.3,208.8 	"/>
	<polygon fill="#7AB800" points="195.7,254.7 119.5,202.4 131.3,185 207.5,237.3 	"/>
	<polygon fill="#7AB800" points="178.7,289.1 130.7,267.8 139.2,248.6 187.2,269.9 	"/>
	<polygon fill="#7AB800" points="25.9,291.6 168.1,326 173.1,305.6 30.9,271.2 	"/>
	
		<rect x="58.7" y="340.2" transform="matrix(0.9983 5.813989e-02 -5.813989e-02 0.9983 20.5787 -5.9119)" fill="#7AB800" width="106.3" height="21"/>
	
		<rect x="104.2" y="346.6" transform="matrix(0.1209 0.9927 -0.9927 0.1209 496.3312 236.3611)" fill="#7AB800" width="21" height="103.6"/>
	
		<rect x="152.1" y="421.2" transform="matrix(0.2964 0.9551 -0.9551 0.2964 528.2128 149.4885)" fill="#7AB800" width="21" height="24.1"/>
	
		<rect x="139.6" y="441.7" transform="matrix(0.462 0.8869 -0.8869 0.462 511.1251 127.9516)" fill="#7AB800" width="21" height="87.2"/>
	
		<rect x="161.8" y="479.3" transform="matrix(0.613 0.7901 -0.7901 0.613 482.4689 67.5101)" fill="#7AB800" width="21" height="94"/>
	
		<rect x="194.5" y="513.8" transform="matrix(0.7443 0.6678 -0.6678 0.7443 426.1664 6.2016)" fill="#7AB800" width="21" height="91.6"/>
	
		<rect x="244.7" y="545.4" transform="matrix(0.8516 0.5242 -0.5242 0.8516 334.8285 -49.7129)" fill="#7AB800" width="21" height="42.3"/>
	<polygon fill="#7AB800" points="280.5,646.2 260.9,638.5 290.9,561.8 310.4,569.5 	"/>
	
		<rect x="319.7" y="575.7" transform="matrix(0.9815 0.1916 -0.1916 0.9815 123.67 -51.9146)" fill="#7AB800" width="21" height="75.6"/>
	<polygon fill="#7AB800" points="385.5,633 364.4,632.7 365.1,580.2 386.2,580.5 	"/>
	<polygon fill="#7AB800" points="420.4,679.4 403.5,579.2 424.3,575.7 441.1,675.9 	"/>
	
		<rect x="430.7" y="586.1" transform="matrix(0.3389 0.9408 -0.9408 0.3389 866.3851 -39.6924)" fill="#7AB800" width="61.4" height="21"/>
	<polygon fill="#7AB800" points="476.7,556.8 553,686.8 571.1,676.3 494.9,546.3 	"/>
	<polygon fill="#7AB800" points="521.2,548.6 509.6,536.7 524.8,522.2 536.4,534.1 	"/>
	<polygon fill="#7AB800" points="589.8,553.1 537.4,510.2 550.7,493.9 603.1,536.9 	"/>
	<polygon fill="#7AB800" points="614.1,509.2 560.6,479.5 570.8,461.2 624.3,490.9 	"/>
	<polygon fill="#7AB800" points="603.7,454 577.8,445.2 584.6,425.3 610.4,434.1 	"/>
	
		<rect x="589.8" y="393.5" transform="matrix(0.9891 0.1474 -0.1474 0.9891 66.4255 -88.5422)" fill="#7AB800" width="81.9" height="21"/>
	<polygon fill="#7AB800" points="592.9,370.2 592.2,349.2 644.2,347.5 644.8,368.5 	"/>
	
		<rect x="609.5" y="281.8" transform="matrix(0.2096 0.9778 -0.9778 0.2096 797.7496 -357.5213)" fill="#7AB800" width="21" height="65.7"/>
	<polygon fill="#7AB800" points="580.5,294.6 572.5,275.2 614,258.1 622,277.6 	"/>
	<polygon fill="#7AB800" points="564.5,259.7 553.2,242.1 662.9,171.7 674.2,189.4 	"/>
	<polygon fill="#7AB800" points="542.5,228.3 528.2,212.9 544.7,197.4 559.1,212.8 	"/>
</g>
<g id="Layer_2">
	<g>
		<path fill="#FFFFFF" d="M384.2,366.8c0,5.1-0.9,9.7-2.6,14s-4.2,8-7.4,11.1s-7,5.6-11.4,7.3c-4.5,1.7-9.4,2.6-14.9,2.6h-27.2
			v-69.9H348c5.4,0,10.4,0.9,14.9,2.6s8.3,4.2,11.4,7.3c3.2,3.1,5.6,6.8,7.4,11.1C383.4,357.1,384.2,361.8,384.2,366.8z
			 M367.6,366.8c0-3.5-0.4-6.6-1.3-9.4c-0.9-2.8-2.2-5.1-3.9-7.1c-1.7-1.9-3.7-3.4-6.2-4.5c-2.4-1-5.2-1.6-8.3-1.6h-10.8v45H348
			c3.1,0,5.9-0.5,8.3-1.6c2.4-1,4.5-2.5,6.2-4.5c1.7-1.9,3-4.3,3.9-7.1S367.6,370.3,367.6,366.8z"/>
		<path fill="#FFFFFF" d="M437,331.9v12.5h-28.7v16.3h22v12h-22v16.7H437v12.5h-45v-69.9H437z"/>
	</g>
</g>
</svg>
