<svg width="616" height="262" viewBox="0 0 616 262" fill="none" xmlns="http://www.w3.org/2000/svg">
<path d="M162.31 99.18C168.956 105.828 173.322 114.413 174.78 123.7L193.88 104.6L241.69 56.79L204.69 19.79L156.89 67.62V0H104.59V94.63C113.181 88.4033 123.71 85.4412 134.288 86.275C144.866 87.1089 154.8 91.6841 162.31 99.18Z" fill="#00D1FF"/>
<path d="M174.78 137.8C173.59 145.329 170.488 152.427 165.769 158.414C161.051 164.401 154.875 169.076 147.832 171.992C140.789 174.909 133.115 175.968 125.546 175.069C117.976 174.171 110.764 171.344 104.6 166.86V261.49H156.89V193.88L204.71 241.69L241.71 204.69L193.89 156.87L174.78 137.8Z" fill="#00D1FF"/>
<path d="M99.18 162.31C90.8085 153.938 86.1055 142.584 86.1055 130.745C86.1055 118.906 90.8085 107.551 99.18 99.1798C100.862 97.5245 102.671 96.0032 104.59 94.6298V67.6298L56.79 19.7998L19.79 56.7998L67.62 104.6H0V156.89H67.62L19.8 204.71L56.8 241.71L104.61 193.9V166.9C102.681 165.517 100.865 163.982 99.18 162.31Z" fill="#D9DBDC"/>
<path d="M174.78 137.8C173.666 144.75 170.924 151.338 166.778 157.026C162.631 162.713 157.198 167.339 150.922 170.526C144.646 173.712 137.705 175.369 130.667 175.36C123.628 175.351 116.691 173.678 110.423 170.476C104.155 167.274 98.7335 162.634 94.6012 156.936C90.4689 151.238 87.7432 144.644 86.6467 137.691C85.5503 130.738 86.1142 123.625 88.2925 116.932C90.4707 110.238 94.2015 104.156 99.18 99.18C100.862 97.5247 102.671 96.0034 104.59 94.63C110.755 90.1432 117.969 87.3147 125.54 86.4152C133.112 85.5158 140.788 86.5756 147.832 89.4932C154.877 92.4108 161.054 97.0884 165.773 103.078C170.491 109.067 173.593 116.168 174.78 123.7L193.88 104.6L241.69 56.79L204.69 19.79L156.89 67.62V0H104.59V67.62L56.79 19.8L19.79 56.8L67.62 104.6H0V156.89H67.62L19.8 204.71L56.8 241.71L104.61 193.9V261.51H156.9V193.88L204.72 241.69L241.72 204.69L193.9 156.87L174.78 137.8ZM164 74.67L204.76 33.91L227.63 56.79L186.82 97.54L179.07 105.3C176.517 100.445 173.243 96.0043 169.36 92.13C165.484 88.2545 161.052 84.9785 156.21 82.41L164 74.67ZM147 9.97V78.57C136.46 75.327 125.19 75.327 114.65 78.57V10L147 9.97ZM34 56.79L56.79 33.91L94.62 71.75V89.81C93.74 90.58 92.91 91.35 92.13 92.13C88.2484 96.003 84.9687 100.436 82.4 105.28L74.67 97.54L34 56.79ZM10 146.92V114.57H78.56C75.317 125.11 75.317 136.38 78.56 146.92H10ZM94.65 189.74L56.79 227.58L33.91 204.71L74.67 164L82.4 156.26C84.9662 161.1 88.2425 165.53 92.12 169.4C92.91 170.19 93.74 170.96 94.62 171.73L94.65 189.74ZM146.95 193.88V251.52H114.57V182.88C125.11 186.123 136.38 186.123 146.92 182.88L146.95 193.88ZM204.74 227.58L164 186.82L156.26 179.08C166.005 173.918 173.971 165.942 179.12 156.19L186.87 163.94L227.63 204.71L204.74 227.58Z" fill="#231F20"/>
<path d="M315.999 66.997C316.032 70.6755 315.401 74.3283 314.138 77.7692C312.956 80.9573 311.163 83.8673 308.865 86.3253C306.542 88.7734 303.751 90.6966 300.667 91.9724C293.82 94.6759 286.245 94.6759 279.398 91.9724C276.312 90.6925 273.515 88.77 271.184 86.3253C268.876 83.8691 267.071 80.9592 265.877 77.7692C263.374 70.8221 263.374 63.1805 265.877 56.2334C267.069 53.0423 268.874 50.1321 271.184 47.6772C273.515 45.2326 276.312 43.3101 279.398 42.0302C282.775 40.643 286.385 39.9539 290.02 40.0024C292.496 39.9849 294.964 40.2984 297.362 40.935C299.574 41.5167 301.7 42.4031 303.682 43.5703C305.583 44.6885 307.322 46.0768 308.848 47.6944C310.374 49.3181 311.681 51.1455 312.735 53.1275C313.819 55.179 314.637 57.368 315.168 59.6387C315.73 62.0484 316.009 64.5188 315.999 66.997ZM306.224 66.997C306.26 64.3494 305.876 61.7135 305.086 59.1938C304.407 57.0317 303.307 55.0347 301.855 53.3243C300.451 51.7114 298.71 50.4476 296.764 49.628C292.407 47.9165 287.592 47.9165 283.235 49.628C281.283 50.4475 279.537 51.7111 278.127 53.3243C276.664 55.0293 275.558 57.0276 274.88 59.1938C274.092 61.7135 273.713 64.3501 273.759 66.997C273.718 69.6477 274.102 72.2872 274.896 74.8087C275.57 76.9797 276.676 78.9819 278.144 80.6868C279.557 82.2898 281.303 83.5444 283.251 84.3574C287.608 86.0689 292.424 86.0689 296.781 84.3574C298.724 83.5439 300.464 82.2893 301.872 80.6868C303.325 78.984 304.425 76.9922 305.102 74.8344C305.89 72.3028 306.269 69.6551 306.224 66.997Z" fill="black"/>
<path d="M331.186 60.7626C332.609 59.0867 334.301 57.6771 336.187 56.5955C338.205 55.5007 340.458 54.9529 342.736 55.0032C344.598 54.9803 346.439 55.4157 348.106 56.2736C349.763 57.1447 351.201 58.4033 352.306 59.9495C353.564 61.7325 354.488 63.7434 355.031 65.8783C355.708 68.5193 356.033 71.2435 355.997 73.9754C356.018 76.587 355.65 79.1864 354.909 81.6828C354.257 83.9169 353.208 86.0052 351.814 87.8403C350.502 89.5504 348.842 90.9412 346.952 91.9143C344.962 92.9088 342.776 93.4104 340.567 93.3795C338.805 93.4272 337.052 93.0985 335.418 92.414C334.001 91.7794 332.71 90.8776 331.612 89.7545V105H323V55.6892H328.313C328.8 55.6589 329.283 55.8044 329.678 56.1009C330.074 56.3974 330.358 56.8266 330.482 57.3154L331.186 60.7626ZM331.644 83.2074C332.491 84.3322 333.59 85.2274 334.845 85.8161C336.036 86.3248 337.314 86.5811 338.602 86.5699C339.82 86.5885 341.027 86.3312 342.139 85.8161C343.206 85.2883 344.127 84.49 344.815 83.4954C345.617 82.3089 346.192 80.975 346.51 79.5654C346.938 77.7358 347.138 75.8574 347.107 73.9754C347.137 72.1208 346.967 70.2686 346.6 68.4531C346.339 67.145 345.845 65.8985 345.143 64.7772C344.571 63.8893 343.779 63.1759 342.851 62.7106C341.889 62.2653 340.843 62.0455 339.789 62.0669C338.186 62.0154 336.599 62.4228 335.205 63.2442C333.839 64.1228 332.634 65.2439 331.644 66.5559V83.2074Z" fill="black"/>
<path d="M369.934 76.111C370.036 77.7879 370.379 79.4417 370.951 81.0225C371.413 82.2894 372.128 83.4507 373.052 84.437C373.914 85.3333 374.973 86.021 376.145 86.447C377.415 86.9043 378.759 87.1294 380.11 87.1114C381.38 87.1366 382.646 86.9663 383.863 86.6068C384.813 86.3193 385.735 85.9478 386.617 85.4967C387.397 85.093 388.083 84.723 388.676 84.3866C389.187 84.076 389.771 83.9022 390.37 83.882C390.703 83.8563 391.037 83.921 391.335 84.0691C391.634 84.2173 391.886 84.4433 392.065 84.723L394.607 87.9609C393.649 89.0848 392.526 90.0599 391.277 90.8539C390.067 91.6181 388.774 92.2444 387.422 92.721C386.095 93.1877 384.724 93.5202 383.33 93.7134C381.99 93.8977 380.64 93.9932 379.288 93.9993C376.829 94.0199 374.386 93.5865 372.086 92.721C369.902 91.8933 367.925 90.6049 366.291 88.9448C364.582 87.1736 363.263 85.0684 362.419 82.7634C361.429 80.027 360.949 77.1343 361.004 74.2272C360.986 71.8075 361.402 69.4039 362.233 67.1291C363.009 64.9852 364.21 63.0177 365.766 61.3429C367.343 59.6669 369.257 58.3376 371.383 57.4406C373.746 56.4502 376.291 55.9604 378.856 56.0025C381.067 55.9789 383.263 56.3551 385.338 57.1126C387.247 57.8237 388.981 58.9336 390.421 60.3673C391.89 61.8682 393.03 63.6551 393.768 65.6152C394.613 67.886 395.024 70.2931 394.98 72.7134C395.058 73.6402 394.91 74.572 394.548 75.4298C394.355 75.6873 394.096 75.8881 393.797 76.0111C393.499 76.134 393.173 76.1743 392.853 76.1279L369.934 76.111ZM386.998 70.7874C387.003 69.684 386.837 68.5864 386.507 67.5327C386.199 66.5427 385.699 65.6225 385.033 64.8247C384.356 64.0409 383.507 63.4222 382.55 63.0165C381.458 62.567 380.284 62.3493 379.102 62.3774C377.988 62.3161 376.874 62.4789 375.826 62.8561C374.777 63.2334 373.817 63.8171 373.002 64.5724C371.384 66.277 370.373 68.4594 370.121 70.7874H386.998Z" fill="black"/>
<path d="M410.249 61.0443C410.987 60.3172 411.768 59.6348 412.589 59.0009C413.403 58.3857 414.276 57.8516 415.196 57.406C417.186 56.4594 419.367 55.9791 421.573 56.0022C423.399 55.9688 425.212 56.3139 426.896 57.0156C428.389 57.6417 429.716 58.6026 430.774 59.8233C431.861 61.1126 432.674 62.6074 433.164 64.2175C433.728 66.0306 434.009 67.9185 434 69.8162V93H425.116V69.7912C425.232 67.9427 424.687 66.1128 423.578 64.6245C422.553 63.4062 420.993 62.797 418.898 62.797C417.406 62.7895 415.935 63.143 414.611 63.8271C413.21 64.5581 411.932 65.5026 410.825 66.6264V92.9751H402V56.5671H407.399C407.901 56.5326 408.4 56.6729 408.811 56.9638C409.221 57.2547 409.516 57.6783 409.647 58.1619L410.249 61.0443Z" fill="black"/>
<path d="M273.428 128.359H275.633C276.386 128.383 277.135 128.257 277.839 127.988C278.438 127.739 278.959 127.331 279.347 126.809L293.333 109.016C293.811 108.352 294.441 107.815 295.17 107.45C295.948 107.124 296.787 106.972 297.629 107.004H305.762L288.669 128.21C287.847 129.348 286.783 130.286 285.553 130.956C286.309 131.231 287.013 131.632 287.636 132.143C288.321 132.713 288.917 133.383 289.406 134.13L307 157.991H298.695C297.832 158.042 296.971 157.878 296.186 157.513C295.617 157.171 295.141 156.692 294.801 156.119L280.47 137.304C280.088 136.724 279.555 136.259 278.929 135.96C278.121 135.666 277.263 135.534 276.404 135.573H273.428V157.991H264V107.029H273.428V128.359Z" fill="black"/>
<path d="M320.007 126.055C320.727 125.32 321.493 124.634 322.301 124.002C323.088 123.383 323.936 122.848 324.829 122.407C325.741 121.958 326.698 121.613 327.682 121.376C328.774 121.118 329.892 120.993 331.013 121.002C332.781 120.97 334.537 121.315 336.168 122.016C337.609 122.646 338.888 123.61 339.904 124.833C340.943 126.116 341.72 127.6 342.189 129.196C342.736 131.01 343.009 132.899 343 134.797V157.992H334.458V134.806C334.57 132.956 334.042 131.126 332.966 129.637C331.97 128.415 330.462 127.808 328.428 127.808C326.981 127.801 325.554 128.154 324.27 128.839C322.914 129.574 321.676 130.519 320.599 131.639V158H312V121.576H317.236C317.723 121.539 318.208 121.679 318.606 121.97C319.004 122.262 319.29 122.686 319.416 123.171L320.007 126.055Z" fill="black"/>
<path d="M367.547 121.001C370.133 120.975 372.701 121.431 375.114 122.347C377.308 123.186 379.296 124.473 380.95 126.123C382.607 127.823 383.88 129.849 384.686 132.069C386.438 137.189 386.438 142.735 384.686 147.855C383.877 150.09 382.604 152.135 380.95 153.86C379.302 155.525 377.313 156.824 375.114 157.67C372.699 158.579 370.132 159.03 367.547 158.998C364.951 159.029 362.372 158.578 359.945 157.67C357.739 156.831 355.742 155.531 354.093 153.86C352.43 152.138 351.151 150.093 350.339 147.855C348.554 142.74 348.554 137.184 350.339 132.069C351.146 129.841 352.425 127.808 354.093 126.106C355.75 124.456 357.745 123.175 359.945 122.347C362.371 121.432 364.95 120.976 367.547 121.001ZM367.547 152.169C370.664 152.169 372.967 151.138 374.457 149.074C375.947 147.011 376.695 143.989 376.701 140.008C376.701 136.027 375.953 132.997 374.457 130.917C372.961 128.837 370.658 127.794 367.547 127.788C364.39 127.788 362.044 128.831 360.526 130.934C359.007 133.036 358.239 136.064 358.239 140.008C358.239 143.953 358.998 146.98 360.517 149.049C362.036 151.118 364.39 152.169 367.547 152.169Z" fill="black"/>
<path d="M446 121.035L433.943 157.999H426.626C425.761 157.999 425.208 157.468 424.896 156.415L418.098 135.05C417.874 134.326 417.675 133.618 417.484 132.91C417.294 132.202 417.147 131.485 417.026 130.761C416.879 131.485 416.706 132.21 416.524 132.943C416.343 133.677 416.135 134.401 415.919 135.126L409 156.415C408.928 156.866 408.69 157.276 408.33 157.567C407.97 157.859 407.513 158.013 407.045 157.999H400.022L388 121.035H395.282C395.895 121.013 396.5 121.178 397.012 121.507C397.454 121.785 397.782 122.205 397.938 122.695L403.369 142.433C403.646 143.512 403.879 144.574 404.096 145.602C404.312 146.63 404.476 147.667 404.632 148.703C404.9 147.667 405.185 146.639 405.497 145.602C405.808 144.565 406.128 143.512 406.474 142.433L412.693 122.653C412.837 122.174 413.142 121.756 413.558 121.465C414.017 121.148 414.569 120.985 415.132 121.001H419.162C419.746 120.984 420.321 121.147 420.806 121.465C421.254 121.74 421.587 122.161 421.748 122.653L427.803 142.467C428.125 143.546 428.428 144.607 428.711 145.652C428.987 146.698 429.264 147.743 429.576 148.771C429.916 146.647 430.372 144.543 430.942 142.467L436.521 122.729C436.695 122.249 437.019 121.833 437.446 121.541C437.912 121.222 438.469 121.057 439.038 121.069L446 121.035Z" fill="black"/>
<path d="M459 105V158H450V105H459Z" fill="black"/>
<path d="M474.927 141.119C475.024 142.796 475.366 144.449 475.943 146.028C476.404 147.295 477.118 148.455 478.042 149.441C478.902 150.339 479.959 151.027 481.132 151.45C482.401 151.907 483.743 152.132 485.093 152.114C486.362 152.14 487.627 151.969 488.844 151.61C489.79 151.324 490.708 150.953 491.586 150.5C492.374 150.097 493.059 149.727 493.652 149.391C494.163 149.08 494.746 148.907 495.345 148.886C495.677 148.863 496.01 148.928 496.307 149.076C496.605 149.224 496.858 149.449 497.038 149.727L499.577 152.964C498.616 154.083 497.495 155.057 496.25 155.855C495.041 156.619 493.749 157.245 492.399 157.722C491.073 158.188 489.703 158.52 488.31 158.713C486.972 158.898 485.623 158.993 484.272 158.999C481.815 159.02 479.375 158.587 477.077 157.722C474.894 156.896 472.918 155.608 471.287 153.947C469.579 152.175 468.259 150.071 467.41 147.768C466.423 145.033 465.947 142.141 466.005 139.236C465.986 136.817 466.402 134.415 467.232 132.141C468.023 129.987 469.244 128.014 470.821 126.34C472.396 124.667 474.304 123.339 476.425 122.44C478.789 121.451 481.335 120.961 483.9 121.002C486.108 120.98 488.302 121.356 490.376 122.112C492.283 122.825 494.014 123.934 495.455 125.365C496.907 126.869 498.031 128.655 498.756 130.611C499.596 132.882 500.007 135.287 499.967 137.706C500.066 138.627 499.942 139.558 499.603 140.421C499.41 140.678 499.151 140.878 498.853 141.001C498.555 141.124 498.229 141.164 497.91 141.119H474.927ZM491.984 135.798C491.991 134.695 491.829 133.598 491.502 132.544C491.19 131.566 490.693 130.656 490.037 129.863C489.361 129.079 488.512 128.461 487.557 128.055C486.453 127.588 485.261 127.358 484.061 127.383C482.948 127.322 481.835 127.484 480.788 127.861C479.74 128.238 478.78 128.822 477.966 129.577C476.364 131.289 475.368 133.473 475.13 135.798H491.984Z" fill="black"/>
<path d="M539 105V158.458H533.557C533.051 158.503 532.546 158.364 532.135 158.065C531.725 157.766 531.436 157.329 531.324 156.834L530.566 153.274C529.114 154.946 527.377 156.348 525.435 157.415C523.358 158.502 521.039 159.046 518.694 158.997C516.77 159.019 514.867 158.586 513.142 157.735C511.432 156.869 509.946 155.619 508.803 154.082C507.502 152.313 506.55 150.314 505.997 148.191C505.301 145.564 504.967 142.854 505.003 140.137C504.983 137.553 505.361 134.981 506.123 132.512C506.798 130.29 507.884 128.215 509.325 126.393C510.681 124.693 512.388 123.303 514.33 122.32C516.381 121.324 518.638 120.825 520.919 120.864C522.733 120.819 524.537 121.149 526.218 121.832C527.671 122.474 529 123.365 530.145 124.466V105H539ZM530.111 130.972C529.237 129.856 528.107 128.967 526.817 128.38C525.602 127.876 524.298 127.621 522.983 127.631C521.732 127.613 520.493 127.869 519.351 128.38C518.25 128.901 517.294 129.688 516.571 130.669C515.735 131.834 515.137 133.152 514.81 134.549C514.374 136.37 514.168 138.239 514.195 140.111C514.165 141.954 514.34 143.795 514.717 145.599C514.989 146.903 515.498 148.146 516.217 149.268C516.803 150.157 517.626 150.865 518.593 151.313C519.581 151.744 520.65 151.959 521.727 151.944C523.376 151.997 525.008 151.598 526.446 150.791C527.852 149.923 529.096 148.815 530.119 147.518L530.111 130.972Z" fill="black"/>
<path d="M579 122.897V126.165C579 127.213 578.361 127.828 577.092 128.086L573.789 128.693C574.309 130.018 574.566 131.43 574.546 132.851C574.573 134.504 574.214 136.141 573.497 137.634C572.78 139.127 571.723 140.436 570.41 141.458C569.041 142.514 567.489 143.315 565.83 143.82C563.988 144.388 562.069 144.669 560.14 144.652C559.444 144.653 558.748 144.62 558.056 144.552C557.383 144.477 556.728 144.386 556.081 144.261C554.929 144.91 554.324 145.7 554.324 146.531C554.296 146.879 554.379 147.227 554.561 147.525C554.744 147.824 555.017 148.058 555.341 148.194C556.199 148.583 557.116 148.827 558.056 148.918C559.333 149.071 560.618 149.16 561.905 149.184C563.342 149.184 564.813 149.3 566.317 149.417C567.803 149.534 569.279 149.742 570.738 150.041C572.085 150.306 573.382 150.78 574.579 151.446C575.693 152.075 576.627 152.973 577.294 154.057C578.026 155.353 578.381 156.824 578.319 158.307C578.314 159.944 577.901 161.555 577.117 162.997C576.258 164.577 575.069 165.957 573.629 167.047C571.945 168.318 570.047 169.287 568.024 169.908C565.577 170.668 563.023 171.036 560.459 170.997C558.013 171.029 555.572 170.749 553.198 170.166C551.38 169.737 549.646 169.018 548.062 168.037C546.812 167.266 545.766 166.211 545.012 164.96C544.356 163.861 544.008 162.61 544.003 161.334C543.954 159.761 544.513 158.23 545.566 157.051C546.756 155.808 548.228 154.864 549.861 154.298C548.926 153.841 548.122 153.157 547.525 152.311C546.913 151.329 546.62 150.186 546.684 149.034C546.691 148.466 546.797 147.904 546.995 147.371C547.212 146.76 547.512 146.181 547.886 145.65C548.321 145.052 548.829 144.51 549.399 144.036C550.044 143.493 550.756 143.032 551.517 142.664C549.724 141.737 548.207 140.364 547.113 138.681C546.026 136.933 545.472 134.911 545.516 132.859C545.49 131.204 545.852 129.565 546.572 128.07C547.292 126.576 548.352 125.266 549.668 124.244C551.05 123.153 552.63 122.334 554.324 121.832C556.217 121.265 558.187 120.984 560.165 121.001C561.664 120.994 563.158 121.156 564.62 121.483C565.946 121.783 567.226 122.256 568.427 122.888L579 122.897ZM570.158 159.754C570.172 159.436 570.122 159.119 570.011 158.821C569.9 158.522 569.73 158.249 569.511 158.016C569.021 157.53 568.418 157.17 567.755 156.968C566.908 156.696 566.034 156.512 565.149 156.419C564.157 156.294 563.098 156.211 561.989 156.145L558.543 155.987C557.358 155.937 556.198 155.845 555.072 155.704C554.164 156.193 553.354 156.845 552.685 157.625C552.079 158.342 551.753 159.251 551.769 160.186C551.766 160.815 551.935 161.432 552.256 161.974C552.63 162.583 553.161 163.083 553.794 163.421C554.655 163.876 555.582 164.193 556.543 164.361C557.907 164.604 559.292 164.716 560.678 164.694C562.113 164.712 563.546 164.589 564.956 164.328C565.989 164.133 566.986 163.786 567.914 163.297C568.604 162.927 569.183 162.385 569.595 161.725C569.963 161.132 570.158 160.45 570.158 159.754ZM560.14 138.964C561.117 138.982 562.089 138.833 563.014 138.523C563.77 138.26 564.461 137.84 565.04 137.292C565.586 136.764 566.005 136.122 566.267 135.413C566.546 134.636 566.685 133.817 566.679 132.993C566.713 132.202 566.582 131.414 566.293 130.677C566.003 129.939 565.562 129.27 564.998 128.71C563.914 127.654 562.275 127.13 560.098 127.13C557.921 127.13 556.282 127.654 555.19 128.71C554.636 129.275 554.205 129.947 553.925 130.684C553.644 131.42 553.52 132.206 553.559 132.993C553.55 133.803 553.69 134.609 553.971 135.371C554.232 136.086 554.648 136.736 555.19 137.275C555.773 137.834 556.473 138.26 557.24 138.523C558.172 138.846 559.153 139.007 560.14 138.997V138.964Z" fill="black"/>
<path d="M590.921 141.111C591.019 142.788 591.361 144.443 591.937 146.023C592.395 147.291 593.109 148.453 594.035 149.437C594.894 150.335 595.951 151.023 597.122 151.447C598.391 151.904 599.732 152.129 601.082 152.111C602.347 152.137 603.608 151.966 604.821 151.607C605.77 151.321 606.69 150.949 607.57 150.497C608.357 150.093 609.043 149.723 609.635 149.387C610.145 149.075 610.728 148.901 611.327 148.882C611.659 148.858 611.991 148.924 612.289 149.072C612.587 149.22 612.839 149.445 613.019 149.723L615.557 152.961C614.596 154.081 613.476 155.055 612.232 155.854C611.023 156.617 609.732 157.243 608.383 157.721C607.054 158.187 605.683 158.519 604.288 158.713C602.954 158.898 601.608 158.994 600.261 158.999C597.802 159.019 595.361 158.586 593.062 157.721C590.882 156.895 588.91 155.607 587.284 153.945C585.574 152.174 584.254 150.069 583.409 147.763C582.423 145.026 581.947 142.134 582.005 139.227C581.986 136.807 582.402 134.404 583.231 132.129C584.003 129.984 585.203 128.015 586.759 126.343C588.331 124.667 590.239 123.337 592.36 122.441C594.722 121.451 597.266 120.961 599.83 121.002C602.037 120.98 604.23 121.356 606.301 122.113C608.208 122.825 609.939 123.934 611.377 125.367C612.857 126.866 614.009 128.653 614.761 130.615C615.602 132.881 616.015 135.282 615.98 137.696C616.058 138.623 615.91 139.555 615.548 140.413C615.355 140.669 615.096 140.869 614.798 140.992C614.501 141.114 614.175 141.156 613.856 141.111H590.921ZM607.951 135.787C607.96 134.684 607.794 133.585 607.461 132.533C607.156 131.551 606.659 130.639 605.997 129.85C605.324 129.067 604.478 128.448 603.527 128.042C602.423 127.574 601.232 127.344 600.033 127.369C598.921 127.308 597.808 127.47 596.762 127.848C595.715 128.225 594.756 128.809 593.942 129.564C592.341 131.278 591.344 133.462 591.099 135.787H607.951Z" fill="black"/>
<path d="M303.113 174.344V222.479H299.845C299.328 222.479 298.891 222.389 298.531 222.21C298.194 222.031 297.857 221.728 297.52 221.303L269.592 185.025C269.637 185.585 269.671 186.134 269.693 186.671C269.716 187.209 269.727 187.713 269.727 188.183V222.479H264V174.344H267.369C267.661 174.344 267.908 174.366 268.11 174.411C268.312 174.433 268.492 174.489 268.649 174.579C268.806 174.646 268.964 174.758 269.121 174.915C269.278 175.049 269.446 175.228 269.626 175.452L297.554 211.696C297.509 211.114 297.464 210.554 297.419 210.017C297.397 209.457 297.386 208.93 297.386 208.438V174.344H303.113Z" fill="black"/>
<path d="M334.817 201.753C334.817 200.365 334.615 199.1 334.211 197.958C333.829 196.793 333.256 195.797 332.493 194.968C331.752 194.117 330.842 193.468 329.764 193.02C328.686 192.55 327.462 192.314 326.092 192.314C323.217 192.314 320.937 193.154 319.253 194.834C317.591 196.491 316.558 198.797 316.154 201.753H334.817ZM339.668 217.709C338.927 218.604 338.04 219.388 337.007 220.06C335.974 220.709 334.862 221.247 333.672 221.672C332.504 222.098 331.291 222.411 330.033 222.613C328.776 222.837 327.529 222.949 326.294 222.949C323.936 222.949 321.757 222.557 319.758 221.773C317.782 220.967 316.064 219.802 314.604 218.28C313.167 216.735 312.044 214.831 311.235 212.569C310.426 210.308 310.022 207.71 310.022 204.776C310.022 202.403 310.382 200.186 311.1 198.126C311.841 196.065 312.897 194.285 314.267 192.785C315.637 191.262 317.31 190.075 319.287 189.224C321.263 188.351 323.487 187.914 325.957 187.914C328.001 187.914 329.887 188.261 331.617 188.955C333.369 189.627 334.873 190.613 336.131 191.911C337.411 193.188 338.411 194.778 339.129 196.681C339.848 198.562 340.208 200.712 340.208 203.131C340.208 204.071 340.106 204.698 339.904 205.012C339.702 205.325 339.32 205.482 338.759 205.482H315.951C316.019 207.632 316.311 209.501 316.827 211.091C317.366 212.681 318.108 214.014 319.051 215.089C319.994 216.141 321.117 216.936 322.42 217.474C323.722 217.989 325.182 218.246 326.799 218.246C328.304 218.246 329.595 218.078 330.674 217.742C331.774 217.384 332.717 217.003 333.503 216.6C334.289 216.197 334.941 215.828 335.457 215.492C335.996 215.133 336.457 214.954 336.839 214.954C337.333 214.954 337.715 215.145 337.984 215.525L339.668 217.709Z" fill="black"/>
<path d="M352.593 214.282C353.693 215.76 354.895 216.802 356.198 217.406C357.5 218.011 358.96 218.313 360.577 218.313C363.766 218.313 366.214 217.182 367.921 214.921C369.628 212.659 370.482 209.434 370.482 205.247C370.482 203.03 370.28 201.126 369.875 199.536C369.494 197.946 368.932 196.648 368.191 195.64C367.45 194.61 366.54 193.86 365.462 193.389C364.384 192.919 363.16 192.684 361.79 192.684C359.836 192.684 358.118 193.132 356.636 194.028C355.176 194.923 353.828 196.189 352.593 197.823V214.282ZM352.29 193.725C353.727 191.956 355.389 190.534 357.276 189.459C359.162 188.384 361.318 187.847 363.744 187.847C365.72 187.847 367.506 188.228 369.101 188.989C370.695 189.728 372.054 190.836 373.177 192.314C374.3 193.77 375.165 195.584 375.771 197.756C376.377 199.928 376.681 202.425 376.681 205.247C376.681 207.755 376.344 210.095 375.67 212.267C374.996 214.417 374.019 216.287 372.739 217.877C371.481 219.444 369.931 220.687 368.09 221.605C366.271 222.501 364.216 222.949 361.925 222.949C359.836 222.949 358.039 222.602 356.535 221.907C355.052 221.191 353.738 220.206 352.593 218.952V234H346.563V188.452H350.167C351.021 188.452 351.549 188.866 351.751 189.694L352.29 193.725Z" fill="black"/>
<path d="M401.816 207.161C399.053 207.251 396.695 207.475 394.741 207.833C392.809 208.169 391.226 208.617 389.991 209.177C388.778 209.737 387.891 210.397 387.329 211.159C386.79 211.92 386.521 212.771 386.521 213.711C386.521 214.607 386.667 215.38 386.959 216.029C387.251 216.679 387.644 217.216 388.138 217.642C388.654 218.045 389.25 218.347 389.923 218.548C390.62 218.728 391.361 218.817 392.147 218.817C393.202 218.817 394.168 218.716 395.044 218.515C395.92 218.291 396.74 217.977 397.503 217.574C398.29 217.171 399.031 216.69 399.727 216.13C400.446 215.57 401.142 214.932 401.816 214.215V207.161ZM382.444 193.255C384.331 191.441 386.364 190.086 388.542 189.191C390.721 188.295 393.135 187.847 395.785 187.847C397.694 187.847 399.39 188.16 400.872 188.787C402.355 189.414 403.601 190.288 404.612 191.407C405.622 192.527 406.386 193.882 406.903 195.472C407.419 197.062 407.677 198.809 407.677 200.712V222.479H405.016C404.432 222.479 403.983 222.389 403.668 222.21C403.354 222.008 403.107 221.628 402.927 221.068L402.254 217.843C401.355 218.672 400.479 219.411 399.626 220.06C398.772 220.687 397.874 221.224 396.931 221.672C395.987 222.098 394.977 222.423 393.899 222.646C392.843 222.893 391.664 223.016 390.361 223.016C389.036 223.016 387.79 222.837 386.622 222.479C385.454 222.098 384.432 221.538 383.556 220.799C382.703 220.06 382.018 219.131 381.501 218.011C381.007 216.869 380.76 215.525 380.76 213.98C380.76 212.637 381.131 211.349 381.872 210.117C382.613 208.863 383.814 207.755 385.476 206.792C387.138 205.829 389.306 205.045 391.978 204.441C394.651 203.814 397.93 203.455 401.816 203.366V200.712C401.816 198.07 401.243 196.077 400.097 194.733C398.952 193.367 397.279 192.684 395.078 192.684C393.596 192.684 392.349 192.874 391.338 193.255C390.35 193.613 389.485 194.028 388.744 194.498C388.026 194.946 387.397 195.36 386.858 195.741C386.341 196.099 385.825 196.278 385.308 196.278C384.904 196.278 384.556 196.177 384.264 195.976C383.972 195.752 383.725 195.483 383.523 195.17L382.444 193.255Z" fill="black"/>
<path d="M422 173V222.479H416.003V173H422Z" fill="black"/>
<path d="M162.31 99.18C168.956 105.828 173.322 114.413 174.78 123.7L193.88 104.6L241.69 56.79L204.69 19.79L156.89 67.62V0H104.59V94.63C113.181 88.4033 123.71 85.4412 134.288 86.275C144.866 87.1089 154.8 91.6841 162.31 99.18Z" fill="#00D1FF"/>
<path d="M174.78 137.8C173.59 145.329 170.488 152.427 165.769 158.414C161.051 164.401 154.875 169.076 147.832 171.992C140.789 174.909 133.115 175.968 125.546 175.069C117.976 174.171 110.764 171.344 104.6 166.86V261.49H156.89V193.88L204.71 241.69L241.71 204.69L193.89 156.87L174.78 137.8Z" fill="#00D1FF"/>
<path d="M99.18 162.31C90.8085 153.938 86.1055 142.584 86.1055 130.745C86.1055 118.906 90.8085 107.551 99.18 99.1798C100.862 97.5245 102.671 96.0032 104.59 94.6298V67.6298L56.79 19.7998L19.79 56.7998L67.62 104.6H0V156.89H67.62L19.8 204.71L56.8 241.71L104.61 193.9V166.9C102.681 165.517 100.865 163.982 99.18 162.31Z" fill="#D9DBDC"/>
<path d="M174.78 137.8C173.666 144.75 170.924 151.338 166.778 157.026C162.631 162.713 157.198 167.339 150.922 170.526C144.646 173.712 137.705 175.369 130.667 175.36C123.628 175.351 116.691 173.678 110.423 170.476C104.155 167.274 98.7335 162.634 94.6012 156.936C90.4689 151.238 87.7432 144.644 86.6467 137.691C85.5503 130.738 86.1142 123.625 88.2925 116.932C90.4707 110.238 94.2015 104.156 99.18 99.18C100.862 97.5247 102.671 96.0034 104.59 94.63C110.755 90.1432 117.969 87.3147 125.54 86.4152C133.112 85.5158 140.788 86.5756 147.832 89.4932C154.877 92.4108 161.054 97.0884 165.773 103.078C170.491 109.067 173.593 116.168 174.78 123.7L193.88 104.6L241.69 56.79L204.69 19.79L156.89 67.62V0H104.59V67.62L56.79 19.8L19.79 56.8L67.62 104.6H0V156.89H67.62L19.8 204.71L56.8 241.71L104.61 193.9V261.51H156.9V193.88L204.72 241.69L241.72 204.69L193.9 156.87L174.78 137.8ZM164 74.67L204.76 33.91L227.63 56.79L186.82 97.54L179.07 105.3C176.517 100.445 173.243 96.0043 169.36 92.13C165.484 88.2545 161.052 84.9785 156.21 82.41L164 74.67ZM147 9.97V78.57C136.46 75.327 125.19 75.327 114.65 78.57V10L147 9.97ZM34 56.79L56.79 33.91L94.62 71.75V89.81C93.74 90.58 92.91 91.35 92.13 92.13C88.2484 96.003 84.9687 100.436 82.4 105.28L74.67 97.54L34 56.79ZM10 146.92V114.57H78.56C75.317 125.11 75.317 136.38 78.56 146.92H10ZM94.65 189.74L56.79 227.58L33.91 204.71L74.67 164L82.4 156.26C84.9662 161.1 88.2425 165.53 92.12 169.4C92.91 170.19 93.74 170.96 94.62 171.73L94.65 189.74ZM146.95 193.88V251.52H114.57V182.88C125.11 186.123 136.38 186.123 146.92 182.88L146.95 193.88ZM204.74 227.58L164 186.82L156.26 179.08C166.005 173.918 173.971 165.942 179.12 156.19L186.87 163.94L227.63 204.71L204.74 227.58Z" fill="#231F20"/>
</svg>
