<?xml version="1.0" encoding="UTF-8" standalone="no"?>
<!DOCTYPE svg PUBLIC "-//W3C//DTD SVG 1.1//EN" "http://www.w3.org/Graphics/SVG/1.1/DTD/svg11.dtd">
<svg width="100%" height="100%" viewBox="0 0 1068 413" version="1.1" xmlns="http://www.w3.org/2000/svg" xmlns:xlink="http://www.w3.org/1999/xlink" xml:space="preserve" xmlns:serif="http://www.serif.com/" style="fill-rule:evenodd;clip-rule:evenodd;stroke-linejoin:round;stroke-miterlimit:2;">
    <g transform="matrix(1,0,0,1,-6592.89,-13233.7)">
        <g transform="matrix(1.17254,0,0,1.17254,5793.78,12116.8)">
            <g transform="matrix(0.204158,0,0,0.204158,-33626.7,-13552.4)">
                <rect x="168047" y="71047.6" width="4459.15" height="1721.16" style="fill:none;"/>
            </g>
            <g transform="matrix(0.204158,0,0,0.204158,-26991,-11578.9)">
                <g transform="matrix(2.38068,0,0,2.38068,-105342,567739)">
                    <g transform="matrix(2.7256,0,0,2.62415,99154.5,-215176)">
                        <path d="M1012.19,1057.14C1012.19,1058.84 1013.54,1060.19 1015.29,1060.19C1016.99,1060.19 1018.34,1058.84 1018.34,1057.14L1018.34,1048.69L1025.29,1048.69C1032.99,1048.69 1039.29,1044.59 1039.29,1036.74L1039.29,1036.64C1039.29,1029.59 1034.19,1024.94 1025.99,1024.94L1015.29,1024.94C1013.54,1024.94 1012.19,1026.29 1012.19,1028.04L1012.19,1057.14ZM1018.34,1043.14L1018.34,1030.54L1025.49,1030.54C1030.09,1030.54 1033.04,1032.69 1033.04,1036.79L1033.04,1036.89C1033.04,1040.54 1030.14,1043.14 1025.49,1043.14L1018.34,1043.14Z"/>
                        <path d="M1044.89,1057.19C1044.89,1058.89 1046.24,1060.19 1047.89,1060.19C1049.59,1060.19 1050.94,1058.84 1050.94,1057.19L1050.94,1049.39C1050.94,1043.14 1053.89,1039.84 1058.19,1039.09C1059.54,1038.84 1060.59,1037.79 1060.59,1036.19C1060.59,1034.44 1059.49,1033.19 1057.59,1033.19C1054.94,1033.19 1052.34,1035.69 1050.94,1038.99L1050.94,1036.29C1050.94,1034.59 1049.59,1033.24 1047.89,1033.24C1046.19,1033.24 1044.89,1034.59 1044.89,1036.29L1044.89,1057.19Z"/>
                        <path d="M1077.19,1060.54C1085.34,1060.54 1091.34,1054.29 1091.34,1046.79L1091.34,1046.69C1091.34,1039.14 1085.39,1032.99 1077.29,1032.99C1069.19,1032.99 1063.19,1039.24 1063.19,1046.79L1063.19,1046.89C1063.19,1054.39 1069.14,1060.54 1077.19,1060.54ZM1077.29,1055.24C1072.59,1055.24 1069.24,1051.39 1069.24,1046.79L1069.24,1046.69C1069.24,1042.09 1072.34,1038.29 1077.19,1038.29C1081.94,1038.29 1085.29,1042.14 1085.29,1046.79L1085.29,1046.89C1085.29,1051.44 1082.19,1055.24 1077.29,1055.24Z"/>
                        <path d="M1101.29,1068.09C1105.54,1068.09 1107.94,1066.09 1110.19,1060.69L1119.84,1037.54C1119.94,1037.24 1120.09,1036.59 1120.09,1036.09C1120.09,1034.49 1118.79,1033.24 1117.19,1033.24C1115.64,1033.24 1114.79,1034.29 1114.29,1035.54L1107.69,1053.09L1100.59,1035.54C1100.04,1034.14 1099.19,1033.24 1097.64,1033.24C1095.94,1033.24 1094.64,1034.49 1094.64,1036.19C1094.64,1036.59 1094.79,1037.19 1094.99,1037.64L1104.79,1059.54L1104.59,1060.09C1103.59,1062.14 1102.64,1062.89 1100.84,1062.89C1099.99,1062.89 1099.44,1062.74 1098.74,1062.54C1098.44,1062.44 1098.14,1062.34 1097.64,1062.34C1096.34,1062.34 1095.19,1063.34 1095.19,1064.84C1095.19,1066.29 1096.19,1067.04 1097.09,1067.34C1098.34,1067.84 1099.59,1068.09 1101.29,1068.09Z"/>
                        <path d="M1129.39,1044.89C1129.94,1040.79 1132.54,1037.94 1136.24,1037.94C1140.24,1037.94 1142.54,1040.99 1142.94,1044.89L1129.39,1044.89ZM1146.44,1057.04C1146.89,1056.59 1147.24,1055.94 1147.24,1055.19C1147.24,1053.79 1146.19,1052.74 1144.84,1052.74C1144.14,1052.74 1143.74,1052.94 1143.29,1053.29C1141.59,1054.69 1139.59,1055.59 1137.04,1055.59C1133.14,1055.59 1130.09,1053.19 1129.44,1048.89L1145.99,1048.89C1147.54,1048.89 1148.84,1047.69 1148.84,1045.99C1148.84,1039.89 1144.69,1032.99 1136.29,1032.99C1128.74,1032.99 1123.39,1039.19 1123.39,1046.74L1123.39,1046.84C1123.39,1054.99 1129.29,1060.54 1136.94,1060.54C1141.04,1060.54 1144.04,1059.19 1146.44,1057.04Z"/>
                        <path d="M1167.24,1060.54C1171.64,1060.54 1174.49,1059.04 1176.84,1056.79C1177.39,1056.34 1177.69,1055.69 1177.69,1054.89C1177.69,1053.44 1176.54,1052.24 1175.09,1052.24C1174.39,1052.24 1173.79,1052.59 1173.44,1052.89C1171.79,1054.29 1169.94,1055.24 1167.54,1055.24C1162.89,1055.24 1159.64,1051.49 1159.64,1046.79L1159.64,1046.69C1159.64,1042.09 1162.89,1038.29 1167.29,1038.29C1169.69,1038.29 1171.39,1039.24 1172.94,1040.54C1173.34,1040.84 1173.99,1041.14 1174.74,1041.14C1176.29,1041.14 1177.54,1039.94 1177.54,1038.39C1177.54,1037.39 1176.99,1036.64 1176.59,1036.29C1174.34,1034.34 1171.49,1032.99 1167.34,1032.99C1159.39,1032.99 1153.59,1039.29 1153.59,1046.79L1153.59,1046.89C1153.59,1054.39 1159.39,1060.54 1167.24,1060.54Z"/>
                        <path d="M1192.44,1060.39C1194.04,1060.39 1195.29,1060.14 1196.59,1059.69C1197.44,1059.34 1198.19,1058.44 1198.19,1057.34C1198.19,1055.94 1196.99,1054.84 1195.64,1054.84C1195.44,1054.84 1194.84,1054.99 1194.14,1054.99C1192.09,1054.99 1190.89,1054.04 1190.89,1051.69L1190.89,1038.74L1195.64,1038.74C1197.09,1038.74 1198.29,1037.59 1198.29,1036.14C1198.29,1034.69 1197.09,1033.54 1195.64,1033.54L1190.89,1033.54L1190.89,1029.04C1190.89,1027.39 1189.54,1026.04 1187.89,1026.04C1186.19,1026.04 1184.84,1027.39 1184.84,1029.04L1184.84,1033.54L1183.84,1033.54C1182.39,1033.54 1181.24,1034.69 1181.24,1036.14C1181.24,1037.59 1182.39,1038.74 1183.84,1038.74L1184.84,1038.74L1184.84,1052.64C1184.84,1058.44 1187.99,1060.39 1192.44,1060.39Z"/>
                        <path d="M1215.94,1060.54C1224.09,1060.54 1230.09,1054.29 1230.09,1046.79L1230.09,1046.69C1230.09,1039.14 1224.14,1032.99 1216.04,1032.99C1207.94,1032.99 1201.94,1039.24 1201.94,1046.79L1201.94,1046.89C1201.94,1054.39 1207.89,1060.54 1215.94,1060.54ZM1216.04,1055.24C1211.34,1055.24 1207.99,1051.39 1207.99,1046.79L1207.99,1046.69C1207.99,1042.09 1211.09,1038.29 1215.94,1038.29C1220.69,1038.29 1224.04,1042.14 1224.04,1046.79L1224.04,1046.89C1224.04,1051.44 1220.94,1055.24 1216.04,1055.24Z"/>
                    </g>
                    <g transform="matrix(6.00905,0,0,5.81224,95846.1,-218360)">
                        <path d="M1027.59,1033.89C1028.22,1034.09 1028.75,1034.43 1029.16,1034.91C1029.58,1035.4 1029.79,1036.17 1029.79,1037.24C1029.79,1038.31 1029.47,1039.47 1028.84,1040.74C1028.2,1042.01 1027.29,1042.64 1026.09,1042.64C1025.49,1042.64 1024.91,1042.51 1024.36,1042.24C1023.81,1041.97 1023.09,1041.84 1022.19,1041.84C1021.29,1041.84 1020.45,1042.15 1019.66,1042.79C1018.88,1043.42 1018.49,1044.19 1018.49,1045.09L1018.49,1055.59C1018.49,1056.36 1018.46,1056.93 1018.41,1057.31C1018.36,1057.7 1018.2,1058.14 1017.94,1058.64C1017.44,1059.51 1016.14,1059.94 1014.04,1059.94C1012.44,1059.94 1011.29,1059.65 1010.59,1059.09C1010.05,1058.62 1009.75,1057.9 1009.69,1056.94L1009.69,1037.94C1009.69,1037.17 1009.71,1036.6 1009.76,1036.21C1009.81,1035.83 1009.95,1035.4 1010.19,1034.94C1010.65,1034.04 1011.95,1033.59 1014.09,1033.59C1016.09,1033.59 1017.34,1033.97 1017.84,1034.74C1018.2,1035.27 1018.39,1035.82 1018.39,1036.39C1018.55,1036.15 1018.8,1035.87 1019.11,1035.54C1019.43,1035.2 1020.1,1034.76 1021.14,1034.19C1022.17,1033.62 1023.08,1033.34 1023.86,1033.34C1024.65,1033.34 1025.3,1033.38 1025.84,1033.46C1026.37,1033.55 1026.95,1033.69 1027.59,1033.89Z"/>
                        <path d="M1056.44,1043.64C1056.44,1045.67 1055.93,1047.18 1054.91,1048.16C1053.9,1049.15 1052.77,1049.64 1051.54,1049.64L1039.69,1049.64C1039.69,1050.57 1040.24,1051.36 1041.34,1051.99C1042.44,1052.62 1043.54,1052.94 1044.64,1052.94C1046.57,1052.94 1048.09,1052.74 1049.19,1052.34L1049.74,1052.14C1050.54,1051.77 1051.2,1051.59 1051.74,1051.59C1052.8,1051.59 1053.72,1052.34 1054.49,1053.84C1054.92,1054.74 1055.14,1055.51 1055.14,1056.14C1055.14,1059.11 1051.59,1060.59 1044.49,1060.59C1042.02,1060.59 1039.83,1060.16 1037.91,1059.31C1036,1058.46 1034.5,1057.34 1033.44,1055.94C1031.34,1053.24 1030.29,1050.22 1030.29,1046.89C1030.29,1042.69 1031.65,1039.33 1034.36,1036.81C1037.08,1034.3 1040.47,1033.04 1044.54,1033.04C1049.17,1033.04 1052.57,1034.67 1054.74,1037.94C1055.87,1039.67 1056.44,1041.57 1056.44,1043.64ZM1045.89,1045.09C1047.15,1045.09 1047.79,1044.56 1047.79,1043.49C1047.79,1042.72 1047.5,1042.11 1046.91,1041.64C1046.33,1041.17 1045.5,1040.94 1044.41,1040.94C1043.33,1040.94 1042.25,1041.38 1041.19,1042.26C1040.12,1043.15 1039.59,1044.09 1039.59,1045.09L1045.89,1045.09Z"/>
                        <path d="M1059.89,1057.59C1059.25,1057.19 1058.94,1056.56 1058.94,1055.69C1058.94,1054.82 1059.57,1053.51 1060.84,1051.74C1061.2,1051.17 1061.8,1050.89 1062.61,1050.89C1063.43,1050.89 1064.54,1051.3 1065.94,1052.11C1067.34,1052.93 1068.6,1053.34 1069.74,1053.34C1071.77,1053.34 1072.79,1052.94 1072.79,1052.14C1072.79,1051.51 1071.67,1051.04 1069.44,1050.74C1067.34,1050.44 1065.25,1049.65 1063.19,1048.39C1062.22,1047.79 1061.42,1046.85 1060.79,1045.56C1060.15,1044.28 1059.84,1042.76 1059.84,1040.99C1059.84,1035.72 1063.45,1033.09 1070.69,1033.09C1073.05,1033.09 1075.49,1033.65 1077.99,1034.79C1079.15,1035.32 1079.74,1035.99 1079.74,1036.79C1079.74,1037.59 1079.37,1038.57 1078.64,1039.74C1077.9,1040.9 1077.15,1041.49 1076.39,1041.49C1075.99,1041.49 1075.25,1041.24 1074.16,1040.74C1073.08,1040.24 1071.9,1039.99 1070.64,1039.99C1068.67,1039.99 1067.69,1040.36 1067.69,1041.09C1067.69,1042.09 1068.82,1042.74 1071.09,1043.04C1073.29,1043.27 1075.42,1043.9 1077.49,1044.94C1078.45,1045.4 1079.26,1046.21 1079.91,1047.36C1080.56,1048.51 1080.89,1049.95 1080.89,1051.69C1080.89,1053.42 1080.56,1054.9 1079.91,1056.11C1079.26,1057.33 1078.35,1058.24 1077.19,1058.84C1075.05,1059.87 1072.38,1060.39 1069.16,1060.39C1065.95,1060.39 1062.85,1059.45 1059.89,1057.59Z"/>
                        <path d="M1084.14,1067.09L1084.14,1037.89C1084.14,1037.12 1084.16,1036.56 1084.21,1036.19C1084.26,1035.82 1084.4,1035.4 1084.64,1034.94C1085.1,1034.04 1086.22,1033.59 1087.99,1033.59C1089.75,1033.59 1090.95,1033.81 1091.56,1034.26C1092.18,1034.71 1092.54,1035.37 1092.64,1036.24C1093.9,1034.51 1095.9,1033.64 1098.61,1033.64C1101.33,1033.64 1103.9,1034.92 1106.34,1037.49C1108.77,1040.06 1109.99,1043.04 1109.99,1046.44C1109.99,1049.84 1108.78,1052.82 1106.36,1055.39C1103.95,1057.95 1101.37,1059.24 1098.64,1059.24C1095.9,1059.24 1093.92,1058.47 1092.69,1056.94L1092.69,1067.04C1092.69,1067.81 1092.66,1068.37 1092.61,1068.74C1092.56,1069.11 1092.41,1069.53 1092.16,1070.01C1091.91,1070.5 1091.49,1070.84 1090.89,1071.04C1090.29,1071.24 1089.47,1071.34 1088.44,1071.34C1087.4,1071.34 1086.58,1071.24 1085.96,1071.04C1085.35,1070.84 1084.91,1070.51 1084.66,1070.04C1084.41,1069.57 1084.26,1069.15 1084.21,1068.79C1084.16,1068.42 1084.14,1067.86 1084.14,1067.09ZM1094.04,1043.54C1093.27,1044.44 1092.89,1045.42 1092.89,1046.49C1092.89,1047.56 1093.28,1048.53 1094.06,1049.41C1094.85,1050.3 1095.85,1050.74 1097.06,1050.74C1098.28,1050.74 1099.31,1050.31 1100.16,1049.44C1101.01,1048.57 1101.44,1047.59 1101.44,1046.49C1101.44,1045.39 1101.04,1044.4 1100.24,1043.51C1099.44,1042.63 1098.4,1042.19 1097.11,1042.19C1095.83,1042.19 1094.8,1042.64 1094.04,1043.54Z"/>
                        <path d="M1113.24,1037.99C1113.24,1037.22 1113.26,1036.65 1113.31,1036.26C1113.36,1035.88 1113.5,1035.44 1113.74,1034.94C1114.2,1034.07 1115.5,1033.64 1117.64,1033.64C1119.24,1033.64 1120.37,1033.92 1121.04,1034.49C1121.6,1034.95 1121.9,1035.67 1121.94,1036.64C1121.97,1036.97 1121.99,1037.45 1121.99,1038.09L1121.99,1055.59C1121.99,1056.36 1121.96,1056.93 1121.91,1057.31C1121.86,1057.7 1121.7,1058.14 1121.44,1058.64C1121,1059.51 1119.72,1059.94 1117.59,1059.94C1115.49,1059.94 1114.2,1059.49 1113.74,1058.59C1113.5,1058.09 1113.36,1057.65 1113.31,1057.29C1113.26,1056.92 1113.24,1056.34 1113.24,1055.54L1113.24,1037.99ZM1121.44,1028.74C1121.2,1029.2 1120.77,1029.54 1120.14,1029.74C1119.5,1029.94 1118.66,1030.04 1117.61,1030.04C1116.56,1030.04 1115.72,1029.94 1115.09,1029.74C1114.45,1029.54 1114.01,1029.19 1113.76,1028.69C1113.51,1028.19 1113.36,1027.75 1113.31,1027.36C1113.26,1026.98 1113.24,1026.4 1113.24,1025.64C1113.24,1024.87 1113.26,1024.3 1113.31,1023.91C1113.36,1023.53 1113.5,1023.11 1113.74,1022.64C1114.2,1021.74 1115.5,1021.29 1117.64,1021.29C1119.74,1021.29 1121,1021.74 1121.44,1022.64C1121.7,1023.14 1121.86,1023.58 1121.91,1023.96C1121.96,1024.35 1121.99,1024.92 1121.99,1025.69C1121.99,1026.45 1121.96,1027.03 1121.91,1027.41C1121.86,1027.8 1121.7,1028.24 1121.44,1028.74Z"/>
                        <path d="M1143.89,1033.89C1144.52,1034.09 1145.05,1034.43 1145.46,1034.91C1145.88,1035.4 1146.09,1036.17 1146.09,1037.24C1146.09,1038.31 1145.77,1039.47 1145.14,1040.74C1144.5,1042.01 1143.59,1042.64 1142.39,1042.64C1141.79,1042.64 1141.21,1042.51 1140.66,1042.24C1140.11,1041.97 1139.39,1041.84 1138.49,1041.84C1137.59,1041.84 1136.75,1042.15 1135.96,1042.79C1135.18,1043.42 1134.79,1044.19 1134.79,1045.09L1134.79,1055.59C1134.79,1056.36 1134.76,1056.93 1134.71,1057.31C1134.66,1057.7 1134.5,1058.14 1134.24,1058.64C1133.74,1059.51 1132.44,1059.94 1130.34,1059.94C1128.74,1059.94 1127.59,1059.65 1126.89,1059.09C1126.35,1058.62 1126.05,1057.9 1125.99,1056.94L1125.99,1037.94C1125.99,1037.17 1126.01,1036.6 1126.06,1036.21C1126.11,1035.83 1126.25,1035.4 1126.49,1034.94C1126.95,1034.04 1128.25,1033.59 1130.39,1033.59C1132.39,1033.59 1133.64,1033.97 1134.14,1034.74C1134.5,1035.27 1134.69,1035.82 1134.69,1036.39C1134.85,1036.15 1135.1,1035.87 1135.41,1035.54C1135.73,1035.2 1136.4,1034.76 1137.44,1034.19C1138.47,1033.62 1139.38,1033.34 1140.16,1033.34C1140.95,1033.34 1141.6,1033.38 1142.14,1033.46C1142.67,1033.55 1143.25,1033.69 1143.89,1033.89Z"/>
                        <path d="M1164.44,1036.39C1164.64,1034.52 1165.95,1033.59 1168.39,1033.59C1169.69,1033.59 1170.65,1033.69 1171.29,1033.89C1171.92,1034.09 1172.36,1034.44 1172.61,1034.94C1172.86,1035.44 1173.01,1035.88 1173.06,1036.26C1173.11,1036.65 1173.14,1037.22 1173.14,1037.99L1173.14,1055.49C1173.14,1056.26 1173.11,1056.83 1173.06,1057.21C1173.01,1057.6 1172.87,1058.04 1172.64,1058.54C1172.17,1059.4 1171.03,1059.84 1169.21,1059.84C1167.4,1059.84 1166.18,1059.61 1165.56,1059.16C1164.95,1058.71 1164.59,1058.06 1164.49,1057.19C1163.25,1058.95 1161.2,1059.84 1158.31,1059.84C1155.43,1059.84 1152.75,1058.52 1150.29,1055.89C1147.82,1053.26 1146.59,1050.2 1146.59,1046.71C1146.59,1043.23 1147.83,1040.18 1150.31,1037.56C1152.8,1034.95 1155.52,1033.64 1158.49,1033.64C1159.62,1033.64 1160.65,1033.84 1161.59,1034.24C1162.52,1034.64 1163.17,1035.01 1163.54,1035.36C1163.9,1035.71 1164.2,1036.06 1164.44,1036.39ZM1155.34,1046.79C1155.34,1047.89 1155.77,1048.88 1156.64,1049.76C1157.5,1050.65 1158.55,1051.09 1159.79,1051.09C1161.02,1051.09 1162.05,1050.64 1162.86,1049.74C1163.68,1048.84 1164.09,1047.85 1164.09,1046.76C1164.09,1045.68 1163.7,1044.67 1162.91,1043.74C1162.13,1042.81 1161.08,1042.34 1159.76,1042.34C1158.45,1042.34 1157.38,1042.81 1156.56,1043.74C1155.75,1044.67 1155.34,1045.69 1155.34,1046.79Z"/>
                    </g>
                </g>
                <g transform="matrix(0.795731,0,0,0.795731,22159.7,7791.49)">
                    <g transform="matrix(4.95383,0,0,4.95383,142480,67596.4)">
                        <path d="M184.558,248.346L148.655,248.346C121.511,248.346 99.474,226.309 99.474,199.165C99.474,172.021 121.511,149.984 148.655,149.984C150.834,149.984 152.981,150.127 155.086,150.402C156.408,117.116 183.849,90.498 217.457,90.498C228.208,90.498 238.328,93.222 247.164,98.017C256.302,86.94 269.186,79.065 283.868,76.336L184.558,248.346Z"/>
                    </g>
                    <g transform="matrix(4.95383,0,0,4.95383,142480,67596.4)">
                        <path d="M301.097,82.451C327.377,85.167 348.244,106.234 350.649,132.604C380.29,133.075 404.209,157.284 404.209,187.036C404.209,216.71 380.415,240.871 350.881,241.464L350.881,241.475L209.285,241.475L301.097,82.451Z" style="fill:white;"/>
                    </g>
                    <g transform="matrix(4.95383,0,0,4.95383,142480,67596.4)">
                        <path d="M350.892,248.334L350.881,248.346L209.285,248.346C206.83,248.346 204.562,247.036 203.335,244.91C202.107,242.785 202.107,240.166 203.335,238.04L295.147,79.016C296.502,76.67 299.109,75.338 301.804,75.617C329.36,78.464 351.621,99.267 356.674,126.112C387.266,129.548 411.079,155.533 411.079,187.036C411.079,220.452 384.287,247.66 350.892,248.334ZM350.743,234.604L350.743,234.595C376.549,234.077 397.338,212.965 397.338,187.036C397.338,161.04 376.44,139.885 350.54,139.474C347.03,139.418 344.126,136.725 343.807,133.228C341.833,111.59 325.671,94.026 304.713,89.929L221.185,234.604L350.743,234.604Z"/>
                    </g>
                    <g transform="matrix(0.27373,0.158038,-0.185914,0.322013,121368,71230.7)">
                        <path d="M56725.2,-38357.9C56725.2,-38398.4 56763.9,-38431.3 56811.6,-38431.3C56859.3,-38431.3 56898,-38398.4 56898,-38357.9L56898,-35000.5C56898,-34959.9 56859.3,-34927 56811.6,-34927C56763.9,-34927 56725.2,-34959.9 56725.2,-35000.5L56725.2,-38357.9Z"/>
                    </g>
                </g>
            </g>
        </g>
    </g>
</svg>
