<?xml version="1.0" encoding="UTF-8" standalone="no"?>
<svg
   width="359"
   height="182"
   viewBox="0 0 359 182"
   fill="none"
   version="1.1"
   id="svg6"
   sodipodi:docname="add-project-button.svg"
   inkscape:version="1.1.2 (0a00cf5339, 2022-02-04)"
   xmlns:inkscape="http://www.inkscape.org/namespaces/inkscape"
   xmlns:sodipodi="http://sodipodi.sourceforge.net/DTD/sodipodi-0.dtd"
   xmlns="http://www.w3.org/2000/svg"
   xmlns:svg="http://www.w3.org/2000/svg">
  <defs
     id="defs10" />
  <sodipodi:namedview
     id="namedview8"
     pagecolor="#ffffff"
     bordercolor="#000000"
     borderopacity="0.25"
     inkscape:pageshadow="2"
     inkscape:pageopacity="0.0"
     inkscape:pagecheckerboard="0"
     showgrid="false"
     inkscape:zoom="3.5097493"
     inkscape:cx="179.5"
     inkscape:cy="91.032143"
     inkscape:window-width="1874"
     inkscape:window-height="1016"
     inkscape:window-x="0"
     inkscape:window-y="0"
     inkscape:window-maximized="1"
     inkscape:current-layer="svg6" />
  <path
     style="color:#000000;fill:#aeffec;-inkscape-stroke:none"
     d="M 108.8418,23.03125 C 94.032023,23.32703 80.342804,24.576107 68.169922,26.707031 51.930484,29.549786 38.49576,33.933102 28.658203,39.751953 18.813666,45.574858 12.710409,52.814632 11.234375,61.185547 c -1.4760357,8.370924 1.783672,17.260818 9.042969,26.099609 7.254102,8.832657 18.380184,17.546034 32.667968,25.771484 28.559916,16.44283 69.394818,30.67683 115.923828,38.88086 46.52905,8.20504 89.77105,8.79554 122.23242,3.11328 16.23896,-2.84217 29.67418,-7.22624 39.51172,-13.04492 9.84486,-5.82225 15.94864,-13.06248 17.42383,-21.43359 1.47625,-8.37092 -1.78362,-17.26057 -9.04297,-26.099614 C 331.74005,85.640115 320.61366,76.926729 306.32617,68.701172 277.76637,52.259063 236.93036,38.024547 190.40234,29.820312 161.32171,24.692667 133.52475,22.538283 108.8418,23.03125 Z m 0.0723,4.007812 c 24.38797,-0.48475 51.95366,1.635609 80.79297,6.720704 46.14189,8.136149 86.63086,22.291745 114.625,38.408203 14.00448,8.062626 24.77637,16.569108 31.57227,24.84375 6.80263,8.282941 9.4111,15.960161 8.19336,22.865231 -1.21681,6.90487 -6.29637,13.22981 -15.52149,18.68555 -9.21643,5.45131 -22.24705,9.76105 -38.16406,12.54687 -31.81857,5.56974 -74.7048,5.02562 -120.84766,-3.11132 C 123.42156,139.8621 82.935634,125.70699 54.941406,109.58984 40.936619,101.52731 30.163071,93.02082 23.367187,84.746094 16.564698,76.463502 13.956267,68.783967 15.173828,61.878906 16.391391,54.973837 21.470269,48.651796 30.695312,43.195312 39.911537,37.743975 52.941645,33.434877 68.859375,30.648437 80.791169,28.559716 94.28128,27.329913 108.91406,27.039062 Z"
     id="path2" />
  <path
     style="color:#000000;fill:#00d1ff;-inkscape-stroke:none"
     d="m 250.43164,23.03125 c -24.68305,-0.492997 -52.47991,1.661417 -81.56055,6.789062 -46.52801,8.204334 -87.365782,22.4368 -115.925778,38.878907 -14.2877,8.225563 -25.413792,16.940816 -32.667968,25.773437 -7.259255,8.838944 -10.5189981,17.728724 -9.042969,26.099614 1.476491,8.37013 7.581824,15.6098 17.425781,21.43164 9.837469,5.81869 23.272167,10.20275 39.511719,13.04492 32.460435,5.68218 75.702145,5.09144 122.230465,-3.11328 46.52902,-8.20404 87.36597,-22.43804 115.92578,-38.88086 14.28854,-8.22548 25.41392,-16.938994 32.66797,-25.771487 7.25941,-8.838801 10.51811,-17.728807 9.04297,-26.099609 -1.47613,-8.370239 -7.58055,-15.608994 -17.42383,-21.431641 l -0.002,-0.002 C 320.7767,33.931694 307.34115,29.549577 291.10352,26.707031 278.93049,24.576108 265.24147,23.327048 250.43164,23.03125 Z m -0.0723,4.007812 c 14.63285,0.290868 28.12274,1.5187 40.05469,3.607422 15.91715,2.786442 28.94886,7.095626 38.16406,12.546875 9.22526,5.456492 14.30375,11.780502 15.52149,18.685547 1.21686,6.905183 -1.39273,14.584606 -8.19531,22.867188 -6.79594,8.27469 -17.56683,16.779286 -31.57227,24.841796 -27.99413,16.11714 -68.48015,30.27225 -114.62305,38.4082 -46.14285,8.13694 -89.0296,8.68302 -120.847652,3.11328 C 52.943712,148.32355 39.911625,144.01379 30.695312,138.5625 21.470406,133.10678 16.391302,126.78203 15.173828,119.87695 13.95626,112.97186 16.566609,105.2926 23.369141,97.009766 30.16515,88.735004 40.936735,80.228636 54.941406,72.166016 82.935754,56.049555 123.42256,41.896015 169.56445,33.759766 c 28.83931,-5.085094 56.40686,-7.205483 80.79492,-6.720704 z"
     id="path4" />
</svg>
