<svg width="19" height="19" viewBox="0 0 19 19" fill="none" xmlns="http://www.w3.org/2000/svg">
<g clip-path="url(#clip0_673_989)">
<path fill-rule="evenodd" clip-rule="evenodd" d="M3.89648 0H15.1035C16.1361 0.00285626 17.1255 0.414295 17.8556 1.14441C18.5857 1.87452 18.9971 2.86395 19 3.89648V15.1035C18.9971 16.1361 18.5857 17.1255 17.8556 17.8556C17.1255 18.5857 16.1361 18.9971 15.1035 19H3.89648C2.86395 18.9971 1.87452 18.5857 1.14441 17.8556C0.414295 17.1255 0.00285626 16.1361 0 15.1035L0 3.89648C0.00285626 2.86395 0.414295 1.87452 1.14441 1.14441C1.87452 0.414295 2.86395 0.00285626 3.89648 0Z" fill="#00D1FF"/>
<path fill-rule="evenodd" clip-rule="evenodd" d="M4.70703 7.78906H6.76196V13.9523H4.70703V7.78906Z" fill="white"/>
<path fill-rule="evenodd" clip-rule="evenodd" d="M6.7596 6.07357C6.75991 6.27707 6.69982 6.47608 6.58696 6.64541C6.47409 6.81474 6.31352 6.94677 6.12557 7.02479C5.93762 7.1028 5.73075 7.1233 5.53114 7.08367C5.33154 7.04404 5.14818 6.94608 5.00429 6.80219C4.8604 6.65829 4.76243 6.47494 4.72281 6.27533C4.68318 6.07573 4.70367 5.86886 4.78169 5.68091C4.85971 5.49296 4.99174 5.33239 5.16107 5.21952C5.3304 5.10665 5.52941 5.04657 5.73291 5.04688C6.00521 5.04688 6.26635 5.15504 6.45889 5.34759C6.65143 5.54013 6.7596 5.80127 6.7596 6.07357Z" fill="white"/>
<path fill-rule="evenodd" clip-rule="evenodd" d="M8.12891 7.78906H10.0246V8.76009H10.0493C10.3137 8.28695 10.9585 7.78906 11.9218 7.78906C13.9211 7.78906 14.2922 9.03377 14.2922 10.6527V13.9523H12.3176V11.0284C12.3176 10.3311 12.3037 9.4327 11.2863 9.4327C10.2689 9.4327 10.1003 10.1919 10.1003 10.9789V13.9523H8.12891V7.78906Z" fill="white"/>
</g>
<defs>
<clipPath id="clip0_673_989">
<rect width="19" height="19" fill="white"/>
</clipPath>
</defs>
</svg>
