<svg width="359" height="182" viewBox="0 0 359 182" fill="none" xmlns="http://www.w3.org/2000/svg">
<path d="M346.068 120.223C344.722 127.861 339.13 134.643 329.595 140.282C320.068 145.917 306.835 150.264 290.757 153.078C258.617 158.704 215.553 158.136 169.217 149.965C122.881 141.795 82.2198 127.601 53.9427 111.322C39.7964 103.177 28.8476 94.5674 21.8226 86.0138C14.7917 77.4531 11.8566 69.1684 13.2034 61.5304C14.5502 53.8924 20.1418 47.1111 29.6766 41.4714C39.2035 35.8364 52.4368 31.4903 68.5154 28.6757C100.655 23.0495 143.719 23.6182 190.055 31.7885C236.39 39.9587 277.052 54.153 305.329 70.4323C319.475 78.5764 330.424 87.1864 337.449 95.7401C344.48 104.301 347.415 112.585 346.068 120.223Z" stroke="#FF80DB" stroke-width="4"/>
<path d="M346.07 61.5333C347.416 69.1713 344.481 77.456 337.45 86.0167C330.425 94.5704 319.477 103.18 305.33 111.324C277.053 127.604 236.392 141.798 190.056 149.968C143.72 158.139 100.656 158.707 68.5165 153.081C52.4379 150.266 39.2046 145.92 29.6777 140.285C20.1429 134.646 14.5513 127.864 13.2046 120.226C11.8578 112.588 14.7928 104.304 21.8237 95.743C28.8488 87.1894 39.7976 78.5794 53.9438 70.4353C82.221 54.156 122.883 39.9616 169.218 31.7914C215.554 23.6212 258.618 23.0524 290.758 28.6786C306.836 31.4932 320.069 35.8393 329.596 41.4744C339.131 47.1141 344.723 53.8953 346.07 61.5333Z" stroke="#00D1FF" stroke-width="4"/>
</svg>
