<svg width="23" height="23" viewBox="0 0 23 23" fill="none" xmlns="http://www.w3.org/2000/svg">
<path d="M21.4653 5.31978C20.7316 5.64561 19.9435 5.86488 19.1163 5.96378C19.9611 5.45778 20.609 4.65661 20.9141 3.70134C20.1244 4.16978 19.2489 4.51018 18.3166 4.69418C17.5707 3.89914 16.5081 3.40234 15.332 3.40234C13.0734 3.40234 11.2426 5.23391 11.2426 7.49174C11.2426 7.81221 11.2794 8.12501 11.3484 8.42324C7.94978 8.25304 4.93678 6.62464 2.91892 4.14984C2.56778 4.75398 2.36615 5.45624 2.36615 6.20681C2.36615 7.62514 3.08758 8.87711 4.18468 9.61004C3.51462 9.58858 2.88365 9.40458 2.33242 9.09868C2.33242 9.11631 2.33242 9.13241 2.33242 9.15004C2.33242 11.1319 3.74155 12.7848 5.61298 13.1597C5.27028 13.2532 4.90842 13.3031 4.53505 13.3031C4.27208 13.3031 4.01525 13.277 3.76608 13.2302C4.28665 14.8548 5.79698 16.0378 7.58638 16.0707C6.18722 17.1678 4.42388 17.8218 2.50722 17.8218C2.17755 17.8218 1.85172 17.8026 1.53125 17.7643C3.34135 18.9243 5.49032 19.6012 7.80028 19.6012C15.3228 19.6012 19.4352 13.3698 19.4352 7.96554C19.4352 7.78844 19.4314 7.61211 19.4237 7.43654C20.2233 6.85924 20.9172 6.13934 21.4653 5.31978Z" fill="#00D1FF"/>
</svg>
