<?xml version="1.0" encoding="UTF-8" standalone="no"?>
<svg
   width="359"
   height="182"
   viewBox="0 0 359 182"
   fill="none"
   version="1.1"
   id="svg6"
   sodipodi:docname="specialist-button.svg"
   inkscape:version="1.1.2 (0a00cf5339, 2022-02-04)"
   xmlns:inkscape="http://www.inkscape.org/namespaces/inkscape"
   xmlns:sodipodi="http://sodipodi.sourceforge.net/DTD/sodipodi-0.dtd"
   xmlns="http://www.w3.org/2000/svg"
   xmlns:svg="http://www.w3.org/2000/svg">
  <defs
     id="defs10" />
  <sodipodi:namedview
     id="namedview8"
     pagecolor="#ffffff"
     bordercolor="#000000"
     borderopacity="0.25"
     inkscape:pageshadow="2"
     inkscape:pageopacity="0.0"
     inkscape:pagecheckerboard="0"
     showgrid="false"
     inkscape:zoom="3.5097493"
     inkscape:cx="179.5"
     inkscape:cy="91.032143"
     inkscape:window-width="1874"
     inkscape:window-height="1016"
     inkscape:window-x="0"
     inkscape:window-y="0"
     inkscape:window-maximized="1"
     inkscape:current-layer="svg6" />
  <path
     d="M346.068 120.223C344.722 127.861 339.13 134.643 329.595 140.282C320.068 145.917 306.835 150.264 290.757 153.078C258.617 158.704 215.553 158.136 169.217 149.965C122.881 141.795 82.2198 127.601 53.9427 111.322C39.7964 103.177 28.8476 94.5674 21.8226 86.0138C14.7917 77.4531 11.8566 69.1684 13.2034 61.5304C14.5502 53.8924 20.1418 47.1111 29.6766 41.4714C39.2035 35.8364 52.4368 31.4903 68.5154 28.6757C100.655 23.0495 143.719 23.6182 190.055 31.7885C236.39 39.9587 277.052 54.153 305.329 70.4323C319.475 78.5764 330.424 87.1864 337.449 95.7401C344.48 104.301 347.415 112.585 346.068 120.223Z"
     stroke="#FF80DB"
     stroke-width="4"
     id="path2" />
  <path
     style="color:#000000;fill:#00d1ff;-inkscape-stroke:none"
     d="M 250.43164,23.033203 C 225.74859,22.540236 197.95173,24.69462 168.87109,29.822266 122.34308,38.0265 81.505305,52.259067 52.945312,68.701172 38.657612,76.926735 27.531517,85.642095 20.277344,94.474609 13.018096,103.31365 9.7583459,112.20333 11.234375,120.57422 c 1.475924,8.37091 7.581106,15.60938 17.425781,21.43164 9.837558,5.81875 23.272317,10.20177 39.511719,13.04492 32.460435,5.68218 75.702145,5.09144 122.230465,-3.11328 46.52902,-8.20403 87.36597,-22.43803 115.92578,-38.88086 14.28854,-8.22547 25.41392,-16.938884 32.66797,-25.771484 7.25941,-8.8388 10.51811,-17.728807 9.04297,-26.099609 C 346.5628,52.814604 340.458,45.576798 330.61328,39.753906 320.77565,33.935071 307.34236,29.551741 291.10352,26.708984 278.93049,24.57806 265.24147,23.328983 250.43164,23.033203 Z m -0.0723,4.007813 c 14.63285,0.29085 28.12275,1.5187 40.05469,3.607421 15.91713,2.786438 28.94772,7.095522 38.16406,12.546875 9.22527,5.456498 14.30375,11.780505 15.52149,18.685547 1.21686,6.905183 -1.39273,14.584606 -8.19531,22.867188 -6.79593,8.274783 -17.56683,16.779283 -31.57227,24.841793 -27.99413,16.11715 -68.48015,30.27226 -114.62305,38.40821 -46.14285,8.13694 -89.0296,8.68301 -120.847652,3.11328 -15.917765,-2.78684 -28.949792,-7.09564 -38.166016,-12.54688 -9.224906,-5.45572 -14.30401,-11.78047 -15.521484,-18.68554 -1.217568,-6.9051 1.392775,-14.58425 8.195313,-22.867191 6.796012,-8.274669 17.567594,-16.78113 31.572265,-24.84375 27.994351,-16.116463 68.481154,-30.270101 114.623044,-38.40625 28.83931,-5.085095 56.40686,-7.205454 80.79492,-6.720703 z"
     id="path4" />
</svg>
